<svg width="66" height="67" viewBox="0 0 66 67" fill="none" xmlns="http://www.w3.org/2000/svg">
<rect y="0.959961" width="66" height="66" rx="8" fill="#E3F2FD"/>
<g clip-path="url(#clip0_579_994)">
<path d="M20.6243 46.3316C13.7906 39.4978 13.7906 28.4168 20.6243 21.5831C27.4581 14.7493 38.5391 14.7493 45.3728 21.5831C52.2066 28.4168 52.2066 39.4978 45.3728 46.3316C38.5391 53.1653 27.4581 53.1653 20.6243 46.3316Z" fill="#09914A"/>
<path d="M32.9993 33.9573L32.8252 16.4582C42.4887 16.362 50.4022 24.1197 50.4984 33.7832L32.9993 33.9573Z" fill="url(#paint0_linear_579_994)"/>
<path d="M33 48.835C41.2152 48.835 47.875 42.1752 47.875 33.96C47.875 25.7447 41.2152 19.085 33 19.085C24.7848 19.085 18.125 25.7447 18.125 33.96C18.125 42.1752 24.7848 48.835 33 48.835Z" fill="#F2F2F2"/>
<path d="M33 45.1162C32.6377 45.1162 32.3438 44.8222 32.3438 44.46V33.96C32.3438 33.5977 32.6377 33.3037 33 33.3037C33.3622 33.3037 33.6562 33.5977 33.6562 33.96V44.46C33.6562 44.8222 33.3622 45.1162 33 45.1162Z" fill="#D83B01"/>
<path d="M32.9998 34.6162C32.8318 34.6162 32.6638 34.5523 32.536 34.4237C32.2797 34.1673 32.2797 33.7517 32.536 33.4953L39.9604 26.0709C40.2168 25.8146 40.6324 25.8146 40.8888 26.0709C41.1452 26.3273 41.1452 26.7429 40.8888 26.9993L33.4635 34.4237C33.3358 34.5523 33.1678 34.6162 32.9998 34.6162Z" fill="#45494D"/>
<path d="M32.9988 35.0537C32.8405 35.0537 32.6794 35.0196 32.5263 34.9461L25.7127 31.6779C25.1676 31.4163 24.9383 30.7636 25.2 30.2184C25.4607 29.6742 26.1134 29.4423 26.6586 29.7057L33.4722 32.9738C34.0173 33.2354 34.2466 33.8882 33.9849 34.4333C33.7977 34.8244 33.4066 35.0537 32.9988 35.0537Z" fill="#45494D"/>
<path d="M33 35.71C33.9665 35.71 34.75 34.9265 34.75 33.96C34.75 32.9935 33.9665 32.21 33 32.21C32.0335 32.21 31.25 32.9935 31.25 33.96C31.25 34.9265 32.0335 35.71 33 35.71Z" fill="#1E2021"/>
<path d="M43.9817 36.6322L48.5168 30.7496C48.8047 30.3768 49.3673 30.3768 49.6552 30.7496L54.1903 36.6322C54.5543 37.1047 54.2183 37.7898 53.6207 37.789H44.5505C43.9546 37.789 43.6177 37.1047 43.9817 36.6322Z" fill="#09914A"/>
</g>
<defs>
<linearGradient id="paint0_linear_579_994" x1="49.6944" y1="33.6391" x2="34.4783" y2="24.6708" gradientUnits="userSpaceOnUse">
<stop stop-color="#F2F2F2"/>
<stop offset="0.148" stop-color="#EEF1EF"/>
<stop offset="0.282" stop-color="#E4ECE8"/>
<stop offset="0.409" stop-color="#D1E4DA"/>
<stop offset="0.533" stop-color="#B7DAC8"/>
<stop offset="0.654" stop-color="#96CCB0"/>
<stop offset="0.773" stop-color="#6DBB92"/>
<stop offset="0.889" stop-color="#3EA770"/>
<stop offset="1" stop-color="#09914A"/>
</linearGradient>
<clipPath id="clip0_579_994">
<rect width="42" height="42" fill="white" transform="translate(12 12.96)"/>
</clipPath>
</defs>
</svg>
