<svg width="66" height="67" viewBox="0 0 66 67" fill="none" xmlns="http://www.w3.org/2000/svg">
<rect y="0.959961" width="66" height="66" rx="8" fill="#E3F2FD"/>
<path d="M48.75 31.335H24.25V20.835C24.25 20.352 24.642 19.96 25.125 19.96H47.875C48.358 19.96 48.75 20.352 48.75 20.835V31.335Z" fill="#E3A600"/>
<path d="M47.875 42.71H25.125C24.6437 42.71 24.25 42.3162 24.25 41.835V31.335H48.75V41.835C48.75 42.3162 48.3563 42.71 47.875 42.71Z" fill="#C48C00"/>
<path d="M47 50.585C48.4497 50.585 49.625 49.4097 49.625 47.96C49.625 46.5102 48.4497 45.335 47 45.335C45.5503 45.335 44.375 46.5102 44.375 47.96C44.375 49.4097 45.5503 50.585 47 50.585Z" fill="#5C5F61"/>
<path opacity="0.15" d="M47 48.835C47.4832 48.835 47.875 48.4432 47.875 47.96C47.875 47.4767 47.4832 47.085 47 47.085C46.5168 47.085 46.125 47.4767 46.125 47.96C46.125 48.4432 46.5168 48.835 47 48.835Z" fill="black"/>
<path d="M26.875 50.585C28.3247 50.585 29.5 49.4097 29.5 47.96C29.5 46.5102 28.3247 45.335 26.875 45.335C25.4253 45.335 24.25 46.5102 24.25 47.96C24.25 49.4097 25.4253 50.585 26.875 50.585Z" fill="#5C5F61"/>
<path opacity="0.15" d="M26.875 48.835C27.3582 48.835 27.75 48.4432 27.75 47.96C27.75 47.4767 27.3582 47.085 26.875 47.085C26.3918 47.085 26 47.4767 26 47.96C26 48.4432 26.3918 48.835 26.875 48.835Z" fill="black"/>
<path d="M26 46.21H21.4351C20.1016 46.21 18.9799 45.2107 18.8276 43.886L16.5588 24.2343C16.508 23.7933 16.1353 23.46 15.6899 23.46H14.625C14.142 23.46 13.75 23.0688 13.75 22.585C13.75 22.1011 14.142 21.71 14.625 21.71H15.6899C17.0234 21.71 18.1451 22.7092 18.2974 24.034L20.5662 43.6856C20.617 44.1266 20.9897 44.46 21.4351 44.46H26C26.483 44.46 26.875 44.8511 26.875 45.335C26.875 45.8188 26.483 46.21 26 46.21Z" fill="url(#paint0_linear_579_1748)"/>
<path d="M22.5 42.71H50.5C50.983 42.71 51.375 43.102 51.375 43.585V45.335C51.375 45.818 50.983 46.21 50.5 46.21H22.5C22.017 46.21 21.625 45.818 21.625 45.335V43.585C21.625 43.102 22.017 42.71 22.5 42.71Z" fill="url(#paint1_linear_579_1748)"/>
<defs>
<linearGradient id="paint0_linear_579_1748" x1="20.3125" y1="46.21" x2="20.3125" y2="21.71" gradientUnits="userSpaceOnUse">
<stop stop-color="#92A3B0"/>
<stop offset="0.015" stop-color="#A3B5C4"/>
<stop offset="0.032" stop-color="#AEC2D1"/>
<stop offset="0.046" stop-color="#B2C6D6"/>
</linearGradient>
<linearGradient id="paint1_linear_579_1748" x1="21.625" y1="44.46" x2="51.375" y2="44.46" gradientUnits="userSpaceOnUse">
<stop stop-color="#3079D6"/>
<stop offset="1" stop-color="#297CD2"/>
</linearGradient>
</defs>
</svg>
