<svg width="66" height="66" viewBox="0 0 66 66" fill="none" xmlns="http://www.w3.org/2000/svg">
<rect width="66" height="66" rx="8" fill="#E3F2FD"/>
<path d="M49.625 43.5H37.375V24.25H46.6141C47.3666 24.25 48.036 24.7321 48.274 25.447L51.375 34.75V41.75C51.375 42.7169 50.5919 43.5 49.625 43.5Z" fill="#EDBE00"/>
<path d="M37.375 43.5H16.375C15.4081 43.5 14.625 42.7169 14.625 41.75V19.875C14.625 18.9081 15.4081 18.125 16.375 18.125H35.625C36.5919 18.125 37.375 18.9081 37.375 19.875V43.5Z" fill="url(#paint0_linear_579_1601)"/>
<path d="M48.75 43.5C48.75 45.9159 46.7918 47.875 44.375 47.875C41.9583 47.875 40 45.9159 40 43.5C40 41.0841 41.9583 39.125 44.375 39.125C46.7918 39.125 48.75 41.0841 48.75 43.5Z" fill="#586169"/>
<path d="M27.75 43.5C27.75 45.9159 25.7909 47.875 23.375 47.875C20.9591 47.875 19 45.9159 19 43.5C19 41.0841 20.9591 39.125 23.375 39.125C25.7909 39.125 27.75 41.0841 27.75 43.5Z" fill="#586169"/>
<path d="M46.125 43.5C46.125 44.4669 45.3419 45.25 44.375 45.25C43.4081 45.25 42.625 44.4669 42.625 43.5C42.625 42.5331 43.4081 41.75 44.375 41.75C45.3419 41.75 46.125 42.5331 46.125 43.5Z" fill="#999999"/>
<path d="M25.125 43.5C25.125 44.4669 24.3419 45.25 23.375 45.25C22.4081 45.25 21.625 44.4669 21.625 43.5C21.625 42.5331 22.4081 41.75 23.375 41.75C24.3419 41.75 25.125 42.5331 25.125 43.5Z" fill="#999999"/>
<path d="M47.875 33.875H41.75C41.267 33.875 40.875 33.483 40.875 33V26.875C40.875 26.392 41.267 26 41.75 26H46.125C46.503 26 46.8364 26.2406 46.9554 26.5985L48.7054 31.8485C48.7343 31.9378 48.75 32.0314 48.75 32.125V33C48.75 33.483 48.358 33.875 47.875 33.875Z" fill="#AD8B00"/>
<path d="M25.5625 37.375C30.1534 37.375 33.875 33.6534 33.875 29.0625C33.875 24.4716 30.1534 20.75 25.5625 20.75C20.9716 20.75 17.25 24.4716 17.25 29.0625C17.25 33.6534 20.9716 37.375 25.5625 37.375Z" fill="url(#paint1_radial_579_1601)"/>
<path d="M25.5625 36.5C29.6701 36.5 33 33.1701 33 29.0625C33 24.9549 29.6701 21.625 25.5625 21.625C21.4549 21.625 18.125 24.9549 18.125 29.0625C18.125 33.1701 21.4549 36.5 25.5625 36.5Z" fill="url(#paint2_radial_579_1601)"/>
<path d="M25.5627 29.5C25.4507 29.5 25.3387 29.4571 25.253 29.3722C25.0823 29.2016 25.0823 28.9242 25.253 28.7536L29.187 24.8196C29.3576 24.649 29.635 24.649 29.8056 24.8196C29.9762 24.9902 29.9762 25.2676 29.8056 25.4382L25.8716 29.3722C25.7867 29.4571 25.6747 29.5 25.5627 29.5Z" fill="#45494D"/>
<path d="M25.5615 29.6094C25.4793 29.6094 25.397 29.591 25.3183 29.5516L20.6816 27.2338C20.4113 27.099 20.301 26.7709 20.4375 26.5005C20.5731 26.2293 20.903 26.1208 21.1708 26.2564L25.8074 28.5743C26.0778 28.709 26.188 29.0371 26.0515 29.3075C25.9553 29.4983 25.7628 29.6094 25.5615 29.6094Z" fill="#45494D"/>
<path d="M25.5625 30.375C26.2874 30.375 26.875 29.7874 26.875 29.0625C26.875 28.3376 26.2874 27.75 25.5625 27.75C24.8376 27.75 24.25 28.3376 24.25 29.0625C24.25 29.7874 24.8376 30.375 25.5625 30.375Z" fill="#1E2021"/>
<defs>
<linearGradient id="paint0_linear_579_1601" x1="17.6359" y1="18.0095" x2="33.8575" y2="42.8394" gradientUnits="userSpaceOnUse">
<stop stop-color="#BD4FF4"/>
<stop offset="0.587" stop-color="#A235EC"/>
<stop offset="1" stop-color="#8C20E5"/>
</linearGradient>
<radialGradient id="paint1_radial_579_1601" cx="0" cy="0" r="1" gradientUnits="userSpaceOnUse" gradientTransform="translate(25.5625 29.0625) scale(8.3125)">
<stop/>
<stop offset="1" stop-opacity="0"/>
</radialGradient>
<radialGradient id="paint2_radial_579_1601" cx="0" cy="0" r="1" gradientUnits="userSpaceOnUse" gradientTransform="translate(25.5144 21.7974) scale(16.5743)">
<stop stop-color="#FAFAFB"/>
<stop offset="1" stop-color="#C8CDD1"/>
</radialGradient>
</defs>
</svg>
