<svg width="66" height="67" viewBox="0 0 66 67" fill="none" xmlns="http://www.w3.org/2000/svg">
<rect y="0.959961" width="66" height="66" rx="8" fill="#EDF2FB"/>
<path d="M49.625 44.46H37.375V25.21H46.6141C47.3666 25.21 48.036 25.6921 48.274 26.407L51.375 35.71V42.71C51.375 43.6768 50.5919 44.46 49.625 44.46Z" fill="#EDBE00"/>
<path d="M37.375 44.46H16.375C15.4081 44.46 14.625 43.6768 14.625 42.71V20.835C14.625 19.8681 15.4081 19.085 16.375 19.085H35.625C36.5919 19.085 37.375 19.8681 37.375 20.835V44.46Z" fill="url(#paint0_linear_579_979)"/>
<path d="M48.75 44.46C48.75 46.8758 46.7918 48.835 44.375 48.835C41.9583 48.835 40 46.8758 40 44.46C40 42.0441 41.9583 40.085 44.375 40.085C46.7918 40.085 48.75 42.0441 48.75 44.46Z" fill="#586169"/>
<path d="M27.75 44.46C27.75 46.8758 25.7909 48.835 23.375 48.835C20.9591 48.835 19 46.8758 19 44.46C19 42.0441 20.9591 40.085 23.375 40.085C25.7909 40.085 27.75 42.0441 27.75 44.46Z" fill="#586169"/>
<path d="M46.125 44.46C46.125 45.4268 45.3419 46.21 44.375 46.21C43.4081 46.21 42.625 45.4268 42.625 44.46C42.625 43.4931 43.4081 42.71 44.375 42.71C45.3419 42.71 46.125 43.4931 46.125 44.46Z" fill="#999999"/>
<path d="M25.125 44.46C25.125 45.4268 24.3419 46.21 23.375 46.21C22.4081 46.21 21.625 45.4268 21.625 44.46C21.625 43.4931 22.4081 42.71 23.375 42.71C24.3419 42.71 25.125 43.4931 25.125 44.46Z" fill="#999999"/>
<path d="M47.875 34.835H41.75C41.267 34.835 40.875 34.443 40.875 33.96V27.835C40.875 27.352 41.267 26.96 41.75 26.96H46.125C46.503 26.96 46.8364 27.2006 46.9554 27.5585L48.7054 32.8085C48.7343 32.8977 48.75 32.9913 48.75 33.085V33.96C48.75 34.443 48.358 34.835 47.875 34.835Z" fill="#AD8B00"/>
<path opacity="0.05" d="M24.2654 37.4652C23.8454 37.4652 23.4517 37.3007 23.1568 37.0023L17.6504 31.4575C17.0449 30.8467 17.0449 29.8545 17.6504 29.2437L18.6252 28.2637C18.9192 27.9662 19.3129 27.8026 19.732 27.8026C20.1512 27.8026 20.5449 27.9671 20.8398 28.2637L24.2654 31.7138L31.1324 24.797C31.4282 24.4995 31.8219 24.335 32.2402 24.335C32.6584 24.335 33.0522 24.4995 33.3479 24.797L34.32 25.7761C34.9255 26.3868 34.9264 27.38 34.3209 27.9898L25.3732 37.0041C25.0792 37.3007 24.6854 37.4652 24.2654 37.4652Z" fill="black"/>
<path opacity="0.07" d="M24.2656 37.0277C23.9638 37.0277 23.6811 36.9096 23.4676 36.6943L17.9613 31.1486C17.5246 30.7085 17.5246 29.9918 17.9613 29.5517L18.9351 28.5717C19.1478 28.3573 19.4304 28.2392 19.7323 28.2392C20.0341 28.2392 20.3168 28.3573 20.5294 28.5717L24.2656 32.3351L31.4433 25.105C31.6568 24.8906 31.9394 24.7725 32.2413 24.7725C32.5431 24.7725 32.8258 24.8915 33.0384 25.1058L34.0105 26.085C34.448 26.526 34.448 27.2417 34.0105 27.6827L25.0619 36.6952C24.851 36.9096 24.5675 37.0277 24.2656 37.0277Z" fill="black"/>
<path d="M23.7788 36.3872L18.2724 30.8406C18.0029 30.5693 18.0029 30.131 18.2724 29.8606L19.2454 28.8806C19.5149 28.6093 19.9507 28.6093 20.2184 28.8806L24.2653 32.9563L31.7536 25.4138C32.0231 25.1426 32.4588 25.1426 32.7266 25.4138L33.6996 26.3938C33.9691 26.6651 33.9691 27.1035 33.6996 27.3738L24.7518 36.3872C24.4832 36.6585 24.0466 36.6585 23.7788 36.3872Z" fill="white"/>
<defs>
<linearGradient id="paint0_linear_579_979" x1="17.6359" y1="18.9695" x2="33.8575" y2="43.7993" gradientUnits="userSpaceOnUse">
<stop stop-color="#21AD64"/>
<stop offset="1" stop-color="#088242"/>
</linearGradient>
</defs>
</svg>
