<svg width="36" height="37" viewBox="0 0 36 37" fill="none" xmlns="http://www.w3.org/2000/svg">
<rect y="0.959961" width="36" height="36" rx="8" fill="white"/>
<path fill-rule="evenodd" clip-rule="evenodd" d="M16.2862 16.9393H18.7622V18.1726C19.1188 17.4633 20.0335 16.8259 21.4075 16.8259C24.0415 16.8259 24.6668 18.2379 24.6668 20.8286V25.6266H22.0002V21.4186C22.0002 19.9433 21.6435 19.1113 20.7355 19.1113C19.4762 19.1113 18.9528 20.0079 18.9528 21.4179V25.6266H16.2862V16.9393ZM11.7135 25.5133H14.3802V16.8259H11.7135V25.5133ZM14.7622 13.9933C14.7623 14.2168 14.7179 14.4381 14.6318 14.6443C14.5456 14.8506 14.4193 15.0376 14.2602 15.1946C13.9378 15.515 13.5014 15.6944 13.0468 15.6933C12.5931 15.693 12.1577 15.5141 11.8348 15.1953C11.6763 15.0377 11.5504 14.8505 11.4644 14.6442C11.3784 14.438 11.3339 14.2168 11.3335 13.9933C11.3335 13.5419 11.5135 13.1099 11.8355 12.7913C12.1581 12.472 12.5937 12.2931 13.0475 12.2933C13.5022 12.2933 13.9382 12.4726 14.2602 12.7913C14.5815 13.1099 14.7622 13.5419 14.7622 13.9933Z" fill="#1565C0"/>
</svg>
