<svg width="151" height="220" viewBox="0 0 151 220" fill="none" xmlns="http://www.w3.org/2000/svg">
<path fill-rule="evenodd" clip-rule="evenodd" d="M103.525 198.375C103.525 198.375 99.125 168.1 90.0125 168.825C80.9 169.55 72.125 207.025 72.125 207.025L102.113 207.662L103.525 198.375Z" fill="#85CCA7"/>
<path fill-rule="evenodd" clip-rule="evenodd" d="M114.812 212.162C114.812 212.162 138.312 171.637 121.974 168.937C105.637 166.237 114.812 212.162 114.812 212.162Z" fill="#85CCA7"/>
<path d="M114.811 212.437C114.799 212.437 114.786 212.437 114.761 212.437C114.611 212.412 114.524 212.275 114.536 212.125L121.236 171.662C121.261 171.512 121.399 171.425 121.549 171.437C121.699 171.462 121.786 171.6 121.774 171.75L115.074 212.212C115.049 212.337 114.936 212.437 114.811 212.437Z" fill="#6BB593"/>
<path d="M119.812 182.062L115.874 174.187C115.812 174.05 115.862 173.9 115.999 173.825C116.137 173.762 116.287 173.812 116.362 173.95L119.949 181.137L125.149 175.425C125.249 175.312 125.424 175.312 125.524 175.412C125.637 175.512 125.637 175.675 125.537 175.787L119.812 182.062Z" fill="#6BB593"/>
<path d="M118.011 193.062C117.924 193.062 117.836 193.012 117.786 192.937L113.824 186.6C113.749 186.475 113.786 186.312 113.911 186.237C114.036 186.162 114.199 186.2 114.274 186.325L118.236 192.662C118.311 192.787 118.274 192.95 118.149 193.025C118.111 193.05 118.061 193.062 118.011 193.062Z" fill="#6BB593"/>
<path d="M117.386 196.875C117.298 196.875 117.223 196.837 117.173 196.762C117.086 196.637 117.123 196.475 117.236 196.387L121.523 193.375C121.648 193.287 121.811 193.325 121.898 193.437C121.986 193.562 121.948 193.725 121.836 193.812L117.548 196.825C117.486 196.862 117.436 196.875 117.386 196.875Z" fill="#6BB593"/>
<path fill-rule="evenodd" clip-rule="evenodd" d="M112.525 212.912C112.525 212.912 155.65 194.625 144.2 182.637C132.763 170.662 112.525 212.912 112.525 212.912Z" fill="#6BB593"/>
<path d="M112.525 213.175C112.45 213.175 112.387 213.15 112.337 213.087C112.237 212.975 112.237 212.812 112.35 212.712L142 184.387C142.112 184.287 142.275 184.287 142.375 184.4C142.475 184.512 142.475 184.675 142.362 184.775L112.712 213.1C112.662 213.15 112.587 213.175 112.525 213.175Z" fill="#5D997B"/>
<path d="M134.6 191.837L136.175 183.175C136.2 183.025 136.337 182.925 136.487 182.962C136.637 182.987 136.725 183.125 136.7 183.275L135.262 191.175L142.85 189.725C143 189.688 143.137 189.788 143.162 189.938C143.187 190.088 143.1 190.225 142.95 190.25L134.6 191.837Z" fill="#5D997B"/>
<path d="M126.725 199.613C126.712 199.613 126.712 199.613 126.699 199.613C126.549 199.6 126.449 199.475 126.462 199.325L127.1 191.875C127.112 191.725 127.249 191.625 127.387 191.638C127.537 191.65 127.637 191.775 127.624 191.925L126.987 199.375C126.974 199.5 126.862 199.613 126.725 199.613Z" fill="#5D997B"/>
<path d="M129.163 202.45L123.913 202.288C123.763 202.288 123.65 202.162 123.65 202.012C123.65 201.862 123.788 201.775 123.925 201.75L129.163 201.913C129.313 201.913 129.425 202.037 129.425 202.188C129.425 202.337 129.3 202.45 129.163 202.45Z" fill="#5D997B"/>
<path fill-rule="evenodd" clip-rule="evenodd" d="M3.86328 216.937C3.86328 216.937 21.1133 187.362 41.0383 187.362C60.9633 187.362 72.6758 206.937 79.8258 207.662C86.9758 208.387 95.5758 195.2 108.551 196.987C121.526 198.775 136.601 216.95 136.601 216.95H3.86328V216.937Z" fill="#6BB593"/>
<path fill-rule="evenodd" clip-rule="evenodd" d="M93.8255 12.9375C76.913 11.975 26.063 29.45 20.0505 47.45C14.038 65.45 33.3255 61.8375 35.888 70.7875C38.4505 79.7375 14.538 106.338 18.9005 131.188C23.263 156.038 117.075 130.438 127.475 108.713C137.875 86.9875 97.7255 69.4 100.375 58.2125C103.025 47.025 119.05 14.375 93.8255 12.9375Z" fill="#F9E4E8"/>
<path d="M7.025 101.562C10.4906 101.562 13.3 98.753 13.3 95.2875C13.3 91.8219 10.4906 89.0125 7.025 89.0125C3.55941 89.0125 0.75 91.8219 0.75 95.2875C0.75 98.753 3.55941 101.562 7.025 101.562Z" fill="#F9E4E8"/>
<path d="M7.025 82.3875C8.79922 82.3875 10.2375 80.9492 10.2375 79.175C10.2375 77.4008 8.79922 75.9625 7.025 75.9625C5.25079 75.9625 3.8125 77.4008 3.8125 79.175C3.8125 80.9492 5.25079 82.3875 7.025 82.3875Z" fill="#F9E4E8"/>
<path d="M77.0625 6.25C78.5122 6.25 79.6875 5.07475 79.6875 3.625C79.6875 2.17525 78.5122 1 77.0625 1C75.6128 1 74.4375 2.17525 74.4375 3.625C74.4375 5.07475 75.6128 6.25 77.0625 6.25Z" fill="#F9E4E8"/>
<path d="M115.537 39.85C117.919 39.85 119.85 37.9192 119.85 35.5375C119.85 33.1557 117.919 31.225 115.537 31.225C113.155 31.225 111.225 33.1557 111.225 35.5375C111.225 37.9192 113.155 39.85 115.537 39.85Z" fill="#F9E4E8"/>
<path d="M82.3992 200.387H8.76172V213.662H82.3992V200.387Z" fill="#83604C"/>
<path d="M13.9367 200.387H8.76172V213.662H13.9367V200.387Z" fill="#976E5A"/>
<path d="M90.7 200.387H21.125V213.662H90.7V200.387Z" fill="#A37A5E"/>
<path d="M27.175 200.387H21.125V213.662H27.175V200.387Z" fill="#B28268"/>
<path fill-rule="evenodd" clip-rule="evenodd" d="M103.524 198.375L104.799 204.788C104.799 204.788 102.062 210.337 102.124 216.95H133.649C133.649 216.95 133.512 212.538 130.512 210.875C127.512 209.2 119.762 207.737 118.149 207.262C116.549 206.8 114.737 204.325 114.737 204.325L113.537 198.375H103.524Z" fill="#CE7474"/>
<path fill-rule="evenodd" clip-rule="evenodd" d="M130.512 210.863C127.512 209.188 119.762 207.725 118.149 207.25C116.549 206.787 114.737 204.312 114.737 204.312C114.737 204.312 111.124 204.513 110.799 208.188H107.799C107.799 208.188 106.799 205.45 104.799 204.775C104.799 204.775 102.062 210.325 102.124 216.938H133.649C133.649 216.938 133.512 212.525 130.512 210.863Z" fill="#282828"/>
<path fill-rule="evenodd" clip-rule="evenodd" d="M102.174 215.2C102.137 215.775 102.112 216.35 102.124 216.938H133.649C133.649 216.938 133.624 216.188 133.387 215.2H102.174Z" fill="#E0CDD3"/>
<path fill-rule="evenodd" clip-rule="evenodd" d="M85.3508 152L88.7008 116.875H90.4258L102.051 203.037H115.813L104.588 99.4999L99.8508 96.4249L77.0008 97.0999L69.9883 123.012L73.8633 146.662L85.3508 152Z" fill="#5C5754"/>
<path fill-rule="evenodd" clip-rule="evenodd" d="M77 101.863H104.812V97.9H77.6125L77 101.863Z" fill="#C82127"/>
<path fill-rule="evenodd" clip-rule="evenodd" d="M94.6992 50.875C95.3617 50.475 103.874 43.975 103.874 43.975C103.874 43.975 107.399 46.475 110.474 53.2875C113.549 60.1 118.362 71.5875 118.362 71.5875L131.587 67.7125L133.987 74.2625C133.987 74.2625 118.499 83.475 116.224 83.475C112.349 83.475 100.862 65.975 100.862 65.975L94.6992 50.875Z" fill="#E42626"/>
<path fill-rule="evenodd" clip-rule="evenodd" d="M82.0121 38.725L78.3871 37.85C78.3871 37.85 71.5871 39.6 67.8496 42.8375C64.1121 46.0625 70.2621 78.125 70.2621 78.125L71.0621 99.5H102.975C105.275 99.5 107.112 97.6 107.05 95.3125L105.662 46.0625C105.662 46.0625 102.837 41.45 95.7746 39.35C88.6996 37.25 82.0121 38.725 82.0121 38.725Z" fill="#E42626"/>
<path fill-rule="evenodd" clip-rule="evenodd" d="M147.075 21.2625C147.075 14.8 141.837 9.5625 135.375 9.5625C128.912 9.5625 123.675 14.8 123.675 21.2625C123.675 21.2625 122.712 28.1125 135.375 41.375C135.375 41.375 147.075 29.975 147.075 21.2625Z" fill="#EF5283"/>
<path d="M135.362 27.525C138.903 27.525 141.774 24.654 141.774 21.1124C141.774 17.5709 138.903 14.7 135.362 14.7C131.82 14.7 128.949 17.5709 128.949 21.1124C128.949 24.654 131.82 27.525 135.362 27.525Z" fill="#FFFEFE"/>
<path fill-rule="evenodd" clip-rule="evenodd" d="M81.1242 12.9L79.8242 13.425C79.8242 13.425 77.5867 14.375 77.6867 16.1125C77.7867 17.85 79.2617 18.2875 79.2617 18.2875C79.2617 18.2875 77.1867 19.05 77.4867 21.0875C77.7867 23.125 79.8242 22.9875 79.8242 22.9875C79.8242 22.9875 77.4867 23.95 77.7242 26.4C77.9617 28.85 81.7367 28.125 81.7367 28.125C81.7367 28.125 80.9242 30.3625 83.0867 31.55C85.2492 32.7375 87.3492 29.1625 87.3867 28.9625C87.4242 28.7625 88.9617 19.4125 88.9617 19.4125L87.6867 13.8625L81.1242 12.9Z" fill="#5E371C"/>
<path fill-rule="evenodd" clip-rule="evenodd" d="M90.0134 21.0124C89.9259 20.8749 88.3259 11.9249 88.3259 11.9249L82.5384 12.4624L79.9509 12.5999C79.9509 12.5999 78.6134 23.4999 84.5009 29.7624C89.6134 35.2124 90.0134 21.0124 90.0134 21.0124Z" fill="#5E371C"/>
<path fill-rule="evenodd" clip-rule="evenodd" d="M103.5 13.725C103.5 13.725 103.963 26.0125 97.6504 31.925H92.7379C92.7379 31.925 92.1254 36.025 96.0129 38.075C96.0129 38.075 96.2129 42.175 90.0754 42.7875C83.9254 43.4 78.4004 37.85 78.4004 37.85C78.4004 37.85 81.6129 36.3125 83.0754 31.55C84.1504 28.05 84.3379 23.3125 84.3379 23.3125C83.0629 23.6125 80.0254 19.2875 82.1504 17.25C84.5629 14.95 85.8379 18.9375 85.8379 18.9375C85.8379 18.9375 86.7129 17.1 86.3004 13.4125L103.5 13.725Z" fill="#D2664B"/>
<path fill-rule="evenodd" clip-rule="evenodd" d="M89.6754 43.975C96.0879 43.975 96.0129 38.075 96.0129 38.075C96.0129 38.075 96.2879 35.525 94.1379 36.0875C91.9879 36.65 89.6754 42.8375 89.6754 42.8375C89.6754 42.8375 87.6754 38.0375 84.3004 35.475C80.9254 32.9125 78.4004 37.85 78.4004 37.85C78.4004 37.85 81.9379 43.975 89.6754 43.975Z" fill="#C82127"/>
<path fill-rule="evenodd" clip-rule="evenodd" d="M79.8125 13.425L103.525 14.025C103.525 14.025 104.563 3.04997 95.6625 1.27497C86.1125 -0.650027 79.0625 2.86247 79.8125 13.425Z" fill="#E42626"/>
<path fill-rule="evenodd" clip-rule="evenodd" d="M87.5117 13.4249L111.824 13.7374C111.824 13.7374 110.874 16.5499 106.674 16.9874C103.537 17.3124 87.5117 13.4249 87.5117 13.4249Z" fill="#C82127"/>
<path d="M77.1367 76.575H22.8867V110.812H77.1367V76.575Z" fill="#FBAE2C"/>
<path d="M77.1367 76.575H55.0742V110.812H77.1367V76.575Z" fill="#E99823"/>
<path d="M40.35 76.575H34.25V87.2374H40.35V76.575Z" fill="#F7D89A"/>
<path d="M81.2117 110.75H18.8242V150.137H81.2117V110.75Z" fill="#FBAE2C"/>
<path d="M81.2109 110.75H55.8359V150.138H81.2109V110.75Z" fill="#E99823"/>
<path d="M38.8875 110.75H31.875V123.013H38.8875V110.75Z" fill="#F7D89A"/>
<path d="M88.2883 150.05H11.7383V198.375H88.2883V150.05Z" fill="#FBAE2C"/>
<path d="M88.3016 150.05H57.1641V198.375H88.3016V150.05Z" fill="#E99823"/>
<path d="M36.3762 150.05H27.7637V165.1H36.3762V150.05Z" fill="#F7D89A"/>
<path fill-rule="evenodd" clip-rule="evenodd" d="M71.4618 47L67.8493 42.825C67.8493 42.825 46.4743 63.0249 44.3368 67.6999C42.1993 72.3749 44.7368 74.65 47.8118 75.7125C50.8868 76.775 72.1243 78.5124 72.1243 78.5124L73.8618 70.625L61.4368 67.55L71.9868 61.5374L71.4618 47Z" fill="#E42626"/>
<path fill-rule="evenodd" clip-rule="evenodd" d="M61.4379 67.575L53.9629 66.1125L64.9754 65.5625L61.4379 67.575Z" fill="#C82127"/>
<path fill-rule="evenodd" clip-rule="evenodd" d="M68.1992 63.725L75.7367 59.1625L68.3242 66.575L68.1992 63.725Z" fill="#C82127"/>
<path fill-rule="evenodd" clip-rule="evenodd" d="M106.076 73.3875L105.801 55.4125L108.538 76.575L106.076 73.3875Z" fill="#C82127"/>
<path fill-rule="evenodd" clip-rule="evenodd" d="M118.35 71.5875L112.875 73.725L117.75 70.1625L118.35 71.5875Z" fill="#C82127"/>
<path fill-rule="evenodd" clip-rule="evenodd" d="M120.887 75.9875H137.324L150.412 50.475L149.874 49.1H133.174L120.324 75.0625L120.887 75.9875Z" fill="#DEE0E2"/>
<path fill-rule="evenodd" clip-rule="evenodd" d="M150.349 50.3375L149.874 49.1H133.174L120.324 75.0625L120.887 75.9875L133.974 50.3375H150.349Z" fill="#B6B7B7"/>
<path fill-rule="evenodd" clip-rule="evenodd" d="M139.788 71.1875C139.788 71.1875 144.226 68.95 144.538 68.1125C144.851 67.2625 144.413 62.1625 144.413 62.1625H140.613L135.676 64.45L135.988 68.9L140.163 69.6625L139.788 71.1875Z" fill="#D2664B"/>
<path fill-rule="evenodd" clip-rule="evenodd" d="M72.125 78.525L73.575 71.9375C73.575 71.9375 78.275 73.7125 79.8125 74.3875C81.35 75.05 81.875 81.6 81.875 81.6L79.75 87.75L75.725 90.2875C75.725 90.2875 74.25 89.225 75.725 87.75C77.2 86.275 77.2 86.275 77.2 86.275L77.6 83.475C77.6125 83.475 74 82 72.125 78.525Z" fill="#D2664B"/>
<path fill-rule="evenodd" clip-rule="evenodd" d="M90.4242 116.875L94.0367 108.325L88.6992 116.875H90.4242Z" fill="#4D4947"/>
<path d="M92.8996 198.375H7.16211V202.4H92.8996V198.375Z" fill="#D1AB87"/>
<path d="M92.8996 212.912H7.16211V216.937H92.8996V212.912Z" fill="#D1AB87"/>
<path fill-rule="evenodd" clip-rule="evenodd" d="M136.588 219.238H3.86289C3.22539 219.238 2.71289 218.725 2.71289 218.087C2.71289 217.45 3.22539 216.938 3.86289 216.938H136.6C137.238 216.938 137.75 217.45 137.75 218.087C137.738 218.712 137.225 219.238 136.588 219.238Z" fill="#303030"/>
<path fill-rule="evenodd" clip-rule="evenodd" d="M92.7367 31.9249H87.1992L92.7367 33.6499V31.9249Z" fill="#333333"/>
<path d="M100.469 18.465C100.055 18.4427 99.6903 18.9724 99.6539 19.648C99.6175 20.3236 99.9234 20.8893 100.337 20.9116C100.751 20.9338 101.115 20.4042 101.152 19.7286C101.188 19.053 100.882 18.4873 100.469 18.465Z" fill="#333333"/>
<path d="M92.4882 18.1244C91.9505 18.0955 91.4851 18.6197 91.4487 19.2953C91.4123 19.9709 91.8187 20.542 92.3564 20.571C92.8942 20.5999 93.3596 20.0757 93.3959 19.4001C93.4323 18.7245 93.0259 18.1534 92.4882 18.1244Z" fill="#333333"/>
<path d="M102.238 17.6374C102.263 17.6249 102.275 17.6249 102.3 17.6124C102.425 17.5374 102.45 17.3624 102.375 17.2499C102.35 17.2124 101.813 16.4249 100.913 16.3374C100.3 16.2749 99.6879 16.5499 99.1004 17.1624C99.0004 17.2624 99.0004 17.4374 99.1004 17.5374C99.2004 17.6374 99.3754 17.6374 99.4754 17.5374C99.9504 17.0499 100.413 16.8249 100.863 16.8749C101.513 16.9374 101.925 17.5499 101.938 17.5499C101.988 17.6374 102.125 17.6749 102.238 17.6374Z" fill="#5E371C"/>
<path d="M94.775 17.3874C94.8 17.3749 94.825 17.3624 94.85 17.3499C94.9625 17.2624 94.9875 17.0999 94.9 16.9749C94.8625 16.9249 93.9125 15.6999 92.45 15.5874C91.525 15.5249 90.625 15.9124 89.7625 16.7624C89.6625 16.8624 89.6625 17.0374 89.7625 17.1374C89.8625 17.2374 90.0375 17.2374 90.1375 17.1374C90.875 16.4124 91.65 16.0624 92.4125 16.1249C93.6375 16.2124 94.475 17.2874 94.4875 17.2999C94.55 17.3874 94.675 17.4249 94.775 17.3874Z" fill="#5E371C"/>
<path d="M89.75 23.625C90.4749 23.625 91.0625 23.0374 91.0625 22.3125C91.0625 21.5876 90.4749 21 89.75 21C89.0251 21 88.4375 21.5876 88.4375 22.3125C88.4375 23.0374 89.0251 23.625 89.75 23.625Z" fill="#DD997C"/>
<path d="M101.191 22.1483C100.798 22.1271 100.455 22.5738 100.424 23.146C100.393 23.7182 100.687 24.1992 101.08 24.2204C101.472 24.2415 101.816 23.7948 101.847 23.2226C101.878 22.6504 101.584 22.1694 101.191 22.1483Z" fill="#DD997C"/>
<path d="M97.4117 26.075L91.8242 25.5625C91.8242 25.5625 94.4242 29.1875 97.4117 26.075Z" fill="white"/>
<path d="M96.137 24.6499C96.1495 24.6499 96.1745 24.6374 96.187 24.6374L98.612 23.7499L97.8495 17.3749C97.837 17.2249 97.6995 17.1249 97.5495 17.1374C97.4245 17.1374 97.2995 17.2874 97.3245 17.4249L98.037 23.3874L96.012 24.1249C95.8745 24.1749 95.7995 24.3249 95.8495 24.4624C95.887 24.5999 96.012 24.6749 96.137 24.6499Z" fill="#333333"/>
<path d="M82.7246 19.5875L83.6121 19.275L83.1746 18.1625C83.1246 18.0375 83.1871 17.9125 83.3121 17.8625C83.4371 17.8125 83.5621 17.875 83.6121 18L84.8996 21.3C84.9496 21.425 84.8871 21.55 84.7621 21.6C84.7246 21.6125 84.6871 21.625 84.6496 21.6125C84.5746 21.6 84.4996 21.55 84.4621 21.4625L83.7746 19.7125L82.8621 20.0375C82.8246 20.05 82.7871 20.05 82.7496 20.05C82.6621 20.0375 82.5996 19.9875 82.5621 19.9C82.5371 19.7625 82.5996 19.625 82.7246 19.5875Z" fill="#333333"/>
<path d="M136.437 65.4874C136.325 65.4874 136.225 65.4124 136.187 65.2999C136.137 65.1624 136.212 65.0124 136.35 64.9624L140.775 63.4624C140.912 63.4124 141.062 63.4874 141.112 63.6249C141.162 63.7624 141.087 63.9124 140.95 63.9624L136.525 65.4624C136.487 65.4874 136.462 65.4874 136.437 65.4874Z" fill="#333333"/>
<path d="M136.675 66.9499C136.55 66.9499 136.437 66.8624 136.412 66.7374C136.387 66.5874 136.475 66.4499 136.625 66.4249L141.025 65.5749C141.162 65.5374 141.312 65.6374 141.337 65.7874C141.362 65.9374 141.275 66.0749 141.125 66.0999L136.725 66.9499C136.712 66.9499 136.687 66.9499 136.675 66.9499Z" fill="#333333"/>
<path d="M136.676 68.3624C136.538 68.3624 136.426 68.25 136.413 68.1125C136.401 67.9625 136.513 67.8374 136.663 67.8249L141.063 67.4875C141.201 67.4625 141.338 67.5875 141.351 67.7375C141.363 67.8875 141.251 68.0124 141.101 68.0249L136.701 68.3624C136.688 68.3624 136.688 68.3624 136.676 68.3624Z" fill="#333333"/>
</svg>
