<svg width="136" height="225" viewBox="0 0 136 225" fill="none" xmlns="http://www.w3.org/2000/svg">
<path d="M113.724 216.67C114.718 200.55 105.239 185.561 105.239 185.561H37.1905C37.1905 185.561 26.8773 201.116 29.3991 219.145C29.3991 219.145 54.852 225.975 75.4595 224.881C96.0669 223.788 113.724 216.67 113.724 216.67Z" fill="#A7A2BC"/>
<path d="M35.3572 174.763C32.6894 184.628 33.9055 190.723 33.9055 190.723C33.9055 190.723 45.6892 198.071 73.9279 197.6C102.166 197.128 107.743 189.441 107.743 189.441C107.743 189.441 107.743 172.123 103.972 169.455C100.201 166.787 35.3572 174.763 35.3572 174.763Z" fill="#E0D2BD"/>
<path d="M109.526 148.683C109.629 157.356 109.709 165.355 109.761 169.535C109.761 171.487 109.186 180.254 107.404 181.083C102.262 183.473 90.3415 187.89 72.0531 188.356C53.0954 188.828 39.6666 183.398 34.2414 180.721C32.5775 179.891 31.0268 171.228 30.9749 169.38C30.8948 164.577 30.711 154.839 30.5036 147.646C30.3999 144.53 30.3244 141.881 30.2207 140.349C29.4147 127.232 27.9347 118.639 26.7893 112.921C26.0116 108.953 25.3753 106.379 25.2339 104.64C23.9612 87.1103 19.1063 72.489 31.6725 65.579C36.2079 63.1167 41.0569 61.282 46.0864 60.1255C46.8641 59.9464 47.6702 59.7625 48.5044 59.607C53.8402 58.5946 59.2513 58.0301 64.6812 57.9196C66.3686 57.9196 68.1079 57.9196 69.9273 57.9196C73.4876 57.9196 76.864 58.0484 80.0567 58.3061C83.5311 58.5901 86.9778 59.1464 90.3651 59.9699H90.4688C91.3507 60.1716 92.2183 60.4314 93.0659 60.7477C94.7658 61.2289 96.4383 61.8017 98.0764 62.4634C100.907 63.6331 103.628 65.0527 106.207 66.7055C116.671 73.5354 110.492 75.0673 109.427 112.026C109.299 116.57 109.247 121.632 109.299 127.321C109.37 133.699 109.45 141.438 109.526 148.683Z" fill="#F3E3C9"/>
<path d="M80.0792 61.2756C78.4295 65.1973 69.5162 69.9815 62.0642 66.4605C60.6934 65.804 59.4451 64.9176 58.3735 63.8398C57.6581 63.1286 57.0125 62.3505 56.4457 61.516C56.309 61.3558 56.2383 61.2615 56.2383 61.2615C56.879 58.1605 57.2668 55.0125 57.3978 51.8486C59.2549 53.9886 62.7618 56.6328 68.7715 56.8167C72.6005 56.9721 76.3397 55.6316 79.1978 53.0789C79.3003 55.8283 79.5948 58.5673 80.0792 61.2756Z" fill="#FF9376"/>
<path d="M79.203 53.0741C77.8266 55.5299 74.6639 58.5135 68.3101 58.5088C62.3051 58.5088 58.143 54.7663 57.4219 51.8675C57.469 51.0143 57.4926 50.1612 57.4926 49.2986L79.0946 48.6434C79.0946 50.147 79.1323 51.6271 79.203 53.0741Z" fill="#E0604F"/>
<path d="M57.4928 49.2986C57.548 43.5132 57.135 37.7329 56.2578 32.0142H80.0799C79.4736 37.5373 79.1449 43.0873 79.0948 48.6434L57.4928 49.2986Z" fill="#E89C77"/>
<path d="M86.5804 28.7806C86.573 31.6351 86.354 34.4852 85.9252 37.3074C85.5391 39.987 84.8235 42.6087 83.7947 45.1129C83.3258 46.2332 82.7629 47.3117 82.112 48.337C79.3263 52.6687 75.0417 56.8213 68.1836 56.4819C44.8093 55.3789 50.4231 15.003 50.4231 15.003C50.4231 15.003 53.4963 4.98683 67.9762 5.10467C82.4561 5.22251 85.5246 15.003 85.5246 15.003C86.2657 19.5574 86.6189 24.1665 86.5804 28.7806Z" fill="#FF9376"/>
<path d="M84.6225 35.0025C84.6225 35.0025 85.1551 30.6849 88.9401 31.8397C92.725 32.9945 86.9415 41.7805 84.6225 40.1072C82.3034 38.4339 84.6225 35.0025 84.6225 35.0025Z" fill="#FF9376"/>
<path d="M52.0442 35.0025C52.0442 35.0025 51.5162 30.6849 47.7266 31.8397C44.0076 32.9945 49.744 41.7805 52.0442 40.1072C54.3444 38.4339 52.0442 35.0025 52.0442 35.0025Z" fill="#FF9376"/>
<path d="M86.1599 35.3749C86.0845 33.0699 88.5968 32.3111 88.8371 33.2161C89.0775 34.1211 88.1772 33.2538 87.654 34.7857C87.1308 36.3176 86.1929 36.4542 86.1599 35.3749Z" fill="#E0604F"/>
<path d="M50.9644 35.6813C49.7342 33.07 48.9847 32.3818 48.1363 32.9663C47.5188 33.3811 47.7969 34.2719 48.5794 34.4793C49.3618 34.6867 49.5456 35.422 50.1725 35.9829C50.7994 36.5438 50.9644 35.6813 50.9644 35.6813Z" fill="#E0604F"/>
<path d="M85.5667 11.8733C86.8347 17.1666 86.599 32.0141 86.599 32.0141L84.1008 36.0772C84.1008 36.0772 83.5117 22.6248 81.0418 20.8808C73.3399 22.9265 64.2711 22.5683 54.7451 21.1071C52.1998 23.6571 53.0671 36.5532 53.0671 36.5532C52.4773 34.7086 51.4654 33.0269 50.1117 31.6418C50.1117 31.6418 49.2162 18.8257 49.7865 13.6362C49.7865 13.6362 47.5429 11.2087 49.1455 8.51731C50.7481 5.82589 54.3775 6.91472 54.3775 6.91472C54.3775 6.91472 54.6084 2.59714 58.9024 1.25851C60.0873 0.884301 61.3514 0.837889 62.5606 1.1242C63.7697 1.41051 64.8787 2.01885 65.77 2.88467C65.77 2.88467 67.0049 0 69.3099 0C71.6148 0 73.1231 3.11091 73.1231 3.11091C73.1231 3.11091 76.3 0.942701 79.2789 2.13993C82.2579 3.33716 82.0788 7.20695 82.0788 7.20695C82.0788 7.20695 85.0435 5.72691 86.6367 7.86684C87.9471 9.62498 85.5667 11.8733 85.5667 11.8733Z" fill="#332525"/>
<path d="M66.6268 48.5491L66.0801 48.1909C67.1736 46.527 70.9161 45.2638 73.6547 46.989L73.3059 47.5357C70.9538 46.0698 67.579 47.1068 66.6268 48.5491Z" fill="#E0604F"/>
<path d="M61.0554 36.5533C59.8817 36.9398 60.0514 38.5141 60.8338 38.0427C62.4741 37.0623 64.171 38.0427 63.4216 36.6522C63.1293 36.1055 61.0554 36.5533 61.0554 36.5533Z" fill="#DEF6FF"/>
<path d="M77.1854 36.5532C79.4997 37.4959 78.1563 38.4104 76.8413 37.6751C76.0447 37.2037 74.1876 37.8636 74.8145 36.6522C75.102 36.1007 77.1854 36.5532 77.1854 36.5532Z" fill="#DEF6FF"/>
<path d="M63.4119 36.5532C63.4119 37.4488 62.8322 37.1424 62.1204 37.1424C61.4087 37.1424 60.8242 37.4488 60.8242 36.5532C60.8242 35.6576 61.404 34.9318 62.1204 34.9318C62.8369 34.9318 63.4119 35.6576 63.4119 36.5532Z" fill="#441817"/>
<path d="M77.2514 36.7654C77.2514 37.6609 76.7801 37.2084 76.0684 37.2084C75.3566 37.2084 74.6543 37.6798 74.6543 36.7654C74.6543 35.8509 75.2341 35.1439 75.9505 35.1439C76.667 35.1439 77.2514 35.8509 77.2514 36.7654Z" fill="#441817"/>
<path d="M73.4855 31.2364C74.3736 31.9585 75.3195 32.6065 76.3136 33.1737C76.8227 33.4612 77.3365 33.7393 77.8597 33.9986C78.3788 34.2692 78.9196 34.4962 79.4764 34.6773C78.8905 34.5988 78.312 34.4727 77.7465 34.3002C77.1762 34.14 76.6059 33.9608 76.045 33.7629C74.9078 33.3706 73.8043 32.8867 72.7455 32.3158C72.6626 32.2791 72.5882 32.2256 72.527 32.1587C72.4658 32.0917 72.4192 32.0128 72.3901 31.927C72.361 31.8411 72.3501 31.7501 72.3579 31.6597C72.3658 31.5694 72.3924 31.4817 72.4359 31.4021C72.4795 31.3226 72.539 31.253 72.6109 31.1976C72.6827 31.1423 72.7653 31.1025 72.8533 31.0807C72.9413 31.0589 73.0329 31.0557 73.1223 31.0711C73.2116 31.0866 73.2968 31.1204 73.3724 31.1704L73.4855 31.2364Z" fill="#332525"/>
<path d="M65.4627 32.4478C64.3224 33.0749 63.1224 33.5865 61.8804 33.975C61.2676 34.1635 60.6502 34.3285 60.028 34.4463C59.4093 34.5879 58.7772 34.6622 58.1426 34.6679C58.7492 34.5283 59.3388 34.3228 59.9007 34.0551C60.4662 33.8023 61.0184 33.5207 61.5552 33.2114C62.6103 32.61 63.6033 31.9059 64.52 31.1092C64.6843 30.9642 64.8996 30.8904 65.1184 30.9041C65.3372 30.9178 65.5415 31.0178 65.6865 31.1822C65.8316 31.3466 65.9053 31.5619 65.8916 31.7806C65.8779 31.9994 65.7779 32.2038 65.6135 32.3488C65.5683 32.389 65.5175 32.4224 65.4627 32.4478Z" fill="#332525"/>
<path d="M67.942 32.1979L67.4141 31.8255C67.6405 31.4814 67.7835 31.0892 67.8318 30.6801C67.8801 30.2709 67.8323 29.8562 67.6922 29.4688L68.2861 29.2048C68.4752 29.6943 68.5426 30.2224 68.4827 30.7438C68.4228 31.2651 68.2372 31.7641 67.942 32.1979Z" fill="#E0604F"/>
<path d="M70.0958 32.2639C69.8338 32.0121 69.6349 31.7019 69.5153 31.3588C69.3958 31.0156 69.3588 30.6491 69.4076 30.2889L70.0533 30.3549C70.0162 30.6111 70.0394 30.8723 70.1213 31.1179C70.2031 31.3634 70.3413 31.5864 70.5247 31.769L70.0958 32.2639Z" fill="#E0604F"/>
<path d="M62.8335 36.0536C62.6591 36.2705 62.5601 36.0536 62.3622 35.8651C62.1642 35.6766 61.8908 35.6436 62.0699 35.4315C62.156 35.3401 62.2733 35.2846 62.3985 35.2758C62.5237 35.267 62.6476 35.3056 62.7456 35.384C62.8436 35.4624 62.9085 35.5748 62.9274 35.6989C62.9463 35.823 62.9179 35.9496 62.8477 36.0536H62.8335Z" fill="#DEF6FF"/>
<path d="M76.6718 36.2468C76.5021 36.4589 76.4031 36.2468 76.2004 36.0536C75.9978 35.8603 75.7291 35.8367 75.9129 35.6199C75.9516 35.5623 76.0019 35.5135 76.0605 35.4764C76.1192 35.4393 76.1849 35.4148 76.2535 35.4046C76.3221 35.3943 76.3921 35.3984 76.4591 35.4167C76.526 35.4349 76.5884 35.4669 76.6423 35.5106C76.6961 35.5543 76.7403 35.6088 76.772 35.6705C76.8037 35.7322 76.8222 35.7998 76.8263 35.8691C76.8304 35.9383 76.8201 36.0077 76.7959 36.0727C76.7717 36.1378 76.7343 36.1971 76.6859 36.2468H76.6718Z" fill="#DEF6FF"/>
<path d="M52.6985 17.5295C52.6985 17.5295 50.5585 22.5305 54.7206 24.1284C58.8826 25.7263 61.1356 22.7898 61.1356 22.7898C61.4473 23.1857 61.8415 23.5089 62.2909 23.7369C62.7402 23.9648 63.2339 24.092 63.7375 24.1095C64.7311 24.1051 65.7009 23.8048 66.5232 23.247C67.1726 23.8246 67.9362 24.2591 68.7645 24.5222C69.5929 24.7853 70.4673 24.8712 71.331 24.7741C74.4654 24.5102 75.1913 22.7143 75.1913 22.7143C75.1913 22.7143 75.9172 23.8974 77.8262 23.7466C79.7351 23.5958 80.0792 22.2194 80.0792 22.2194C80.0792 22.2194 81.1115 23.4779 83.44 23.0207C85.7684 22.5635 84.8917 17.2137 81.8751 16.5632C78.8584 15.9128 52.6985 17.5295 52.6985 17.5295Z" fill="#332525"/>
<path d="M56.7422 9.12537C57.077 9.28897 57.3559 9.54812 57.5435 9.8701C57.7273 10.2097 57.8184 10.5918 57.8074 10.9778C57.7844 11.3477 57.6762 11.7073 57.4915 12.0286C57.3067 12.3499 57.0503 12.6242 56.7422 12.8302C56.8553 12.4908 56.9402 12.1656 57.0203 11.8545C57.1034 11.5579 57.1508 11.2526 57.1617 10.9448C57.1845 10.312 57.0398 9.68433 56.7422 9.12537Z" fill="#5E4040"/>
<path d="M67.3242 6.55177C67.3449 6.051 67.4943 5.564 67.7579 5.13772C68.0443 4.68984 68.4602 4.33969 68.9504 4.13374C69.4309 3.95888 69.9463 3.90102 70.4536 3.96496C70.961 4.02889 71.4459 4.21278 71.868 4.50139C71.3982 4.455 70.9255 4.44397 70.454 4.4684C70.018 4.47602 69.5876 4.56723 69.1861 4.73707C68.3753 4.98688 67.8521 5.7269 67.3242 6.55177Z" fill="#5E4040"/>
<path d="M75.4602 9.98792C75.3316 10.6487 75.3221 11.327 75.4319 11.9912C75.4874 12.3035 75.5941 12.6045 75.7477 12.882C75.9112 13.1926 76.1004 13.489 76.3133 13.7681C75.9358 13.6567 75.5956 13.4448 75.3291 13.1551C75.0626 12.8654 74.8798 12.5087 74.8003 12.1231C74.731 11.7318 74.7553 11.3297 74.871 10.9495C74.9867 10.586 75.1889 10.256 75.4602 9.98792Z" fill="#5E4040"/>
<path d="M52.214 16.8367C52.0948 17.4991 52.0948 18.1775 52.214 18.8399C52.2652 19.1533 52.3721 19.4551 52.5298 19.7308C52.6898 20.0423 52.8776 20.3389 53.0907 20.6169C52.7131 20.5055 52.3729 20.2936 52.1064 20.0038C51.8399 19.7141 51.6572 19.3574 51.5776 18.9719C51.5084 18.5806 51.5326 18.1784 51.6483 17.7982C51.7589 17.4378 51.9526 17.1084 52.214 16.8367Z" fill="#5E4040"/>
<path d="M81.9609 17.1524C82.5118 16.7679 82.9905 16.2892 83.375 15.7384C83.5609 15.4787 83.6997 15.1883 83.7851 14.8805C83.8893 14.5466 83.965 14.2044 84.0113 13.8577C84.2008 14.2031 84.2925 14.5936 84.2767 14.9872C84.261 15.3808 84.1382 15.7627 83.9217 16.0919C83.6932 16.4168 83.3912 16.6833 83.0403 16.8696C82.7084 17.0489 82.3382 17.1459 81.9609 17.1524Z" fill="#5E4040"/>
<path d="M61.5645 15.0832C61.9258 14.8674 62.3363 14.7474 62.757 14.7344C63.1887 14.7245 63.6171 14.8115 64.0108 14.9889C64.3906 15.1689 64.7291 15.4255 65.0049 15.7427C65.2807 16.0599 65.4879 16.4307 65.6134 16.8319C65.2975 16.568 64.9817 16.3606 64.6707 16.1249C64.3777 15.9069 64.0615 15.7219 63.728 15.5734C63.0486 15.2618 62.3118 15.0949 61.5645 15.0832Z" fill="#5E4040"/>
<path d="M69.017 44.1609C68.648 44.1745 68.2807 44.1059 67.9415 43.9599C67.6024 43.814 67.3 43.5945 67.0562 43.3172C67.0242 43.2868 66.9988 43.2502 66.9814 43.2097C66.964 43.1692 66.9551 43.1256 66.9551 43.0815C66.9551 43.0374 66.964 42.9938 66.9814 42.9533C66.9988 42.9128 67.0242 42.8762 67.0562 42.8458C67.0862 42.8133 67.1226 42.7873 67.1632 42.7695C67.2038 42.7517 67.2476 42.7425 67.2919 42.7425C67.3361 42.7425 67.38 42.7517 67.4205 42.7695C67.4611 42.7873 67.4975 42.8133 67.5275 42.8458C68.2204 43.5953 69.0264 43.6754 70.827 43.1522C70.8693 43.1413 70.9082 43.1201 70.9403 43.0905C70.9724 43.0609 70.9966 43.0238 71.0108 42.9825C71.3219 42.3226 70.7751 40.3571 70.0681 38.7404C69.3139 37.0152 70.1624 34.4228 70.2001 34.3144C70.227 34.2331 70.285 34.1659 70.3615 34.1274C70.4379 34.089 70.5266 34.0825 70.6078 34.1093C70.6891 34.1362 70.7563 34.1943 70.7948 34.2707C70.8332 34.3472 70.8397 34.4358 70.8128 34.5171C70.8128 34.5453 70.0068 36.9822 70.662 38.4811C70.9165 39.0656 72.1609 42.0304 71.6047 43.2465C71.5501 43.3708 71.4685 43.4815 71.3657 43.5704C71.263 43.6592 71.1417 43.7241 71.0108 43.7602C70.3673 43.9832 69.6966 44.118 69.017 44.1609Z" fill="#E0604F"/>
<path d="M70.8511 55.5062L70.7852 54.8652C70.8559 54.8652 72.4679 54.6719 72.4679 53.4935H73.1183C73.1183 54.9029 71.6383 55.4308 70.8511 55.5062Z" fill="#E0604F"/>
<path d="M63.9731 101.34C60.339 102.377 52.1893 137.748 30.5072 147.669C30.4035 144.554 30.3281 141.905 30.2244 140.373C29.4184 127.255 27.9384 118.663 26.793 112.945C38.0677 104.508 55.074 92.069 55.074 92.069L66.3864 90.4852C66.3864 90.4852 67.5837 100.275 63.9731 101.34Z" fill="#E0D2BD"/>
<path d="M109.525 148.683C108.62 148.397 107.735 148.051 106.876 147.646C85.1658 137.724 77.0398 102.354 73.4104 101.317C69.781 100.28 71.0206 90.4758 71.0206 90.4758L82.333 92.0596C82.333 92.0596 98.1987 103.669 109.445 112.031C109.318 116.575 109.266 121.637 109.318 127.326C109.37 133.699 109.45 141.438 109.525 148.683Z" fill="#E0D2BD"/>
<path d="M28.5327 67.7708C6.94482 85.7009 -3.51917 141.075 2.33501 146.345C14.5053 157.29 44.4879 135.193 57.483 98.5311L48.5651 91.0461L30.6208 103.113L28.5327 67.7708Z" fill="#F3E3C9"/>
<path d="M107.611 67.7708C129.203 85.6821 139.253 140.637 133.818 146.345C124.495 156.144 91.6603 135.193 78.6699 98.5311L87.5973 91.046L105.542 103.113L107.611 67.7708Z" fill="#F3E3C9"/>
<path d="M87.5844 91.0461C87.5844 91.0461 85.5906 84.056 85.0956 82.2648C84.6007 80.4737 82.6116 78.3291 81.848 78.1782C81.0844 78.0274 79.0624 79.2435 79.0624 79.2435C79.0624 79.2435 76.847 79.0172 75.8902 79.5499C74.9333 80.0825 74.6694 81.5013 74.6694 81.5013C74.6694 81.5013 71.9591 81.9726 71.5773 82.9153C71.3398 83.5409 71.1984 84.1988 71.1578 84.8667C70.4887 85.3058 69.9161 85.8768 69.4751 86.5447C69.0037 87.4214 70.1255 92.9975 70.9268 93.4971C71.2859 93.7768 71.7362 93.9129 72.1901 93.8789C72.1901 93.8789 73.293 96.3205 75.1266 97.202C76.305 97.7502 77.546 98.1522 78.822 98.3992C84.5756 97.2554 87.4964 94.8043 87.5844 91.0461Z" fill="#FF9376"/>
<path d="M70.454 88.0671L71.4297 90.9282L71.8539 92.3753C71.9906 92.8466 72.0943 93.3604 72.1886 93.8742C71.5833 93.0385 71.117 92.1106 70.8075 91.1262C70.4709 90.1438 70.3504 89.1004 70.454 88.0671Z" fill="#E0604F"/>
<path d="M82.6348 79.941C85.6938 81.2985 87.2021 81.9301 86.9335 83.3018C86.6648 84.6734 86.9335 90.7491 86.382 91.3147C85.8305 91.8804 82.6348 79.941 82.6348 79.941Z" fill="#FF9376"/>
<path d="M53.5569 79.564C50.4978 80.9262 48.9942 81.5531 49.2582 82.9294C49.5221 84.3058 49.2582 90.3767 49.8096 90.9424C50.3611 91.508 53.5569 79.564 53.5569 79.564Z" fill="#FF9376"/>
<path d="M48.5645 91.0461C48.5645 91.0461 50.5583 84.056 51.0532 82.2648C51.5481 80.4737 53.5372 78.3291 54.3008 78.1782C55.0644 78.0274 57.0865 79.2435 57.0865 79.2435C57.0865 79.2435 59.3018 79.0172 60.2587 79.5499C61.2155 80.0825 61.4795 81.5013 61.4795 81.5013C61.4795 81.5013 64.1897 81.9726 64.5715 82.9153C64.809 83.5409 64.9504 84.1988 64.991 84.8667C65.6613 85.3045 66.2341 85.8757 66.6737 86.5447C67.1451 87.4214 66.0233 92.9975 65.222 93.4971C64.8645 93.7765 64.4159 93.9126 63.9635 93.8789C63.9635 93.8789 62.8558 96.3205 61.0223 97.202C59.8439 97.7502 58.6029 98.1522 57.3269 98.3992C51.9252 97.9137 48.8001 95.6324 48.5645 91.0461Z" fill="#FF9376"/>
<path d="M65.7183 88.2793C65.8038 88.7792 65.8165 89.2888 65.756 89.7923C65.6918 90.2909 65.5845 90.7829 65.4355 91.2629C65.1335 92.2267 64.6325 93.1164 63.9648 93.8742C64.0968 93.4029 64.2288 92.9315 64.3796 92.4602L64.8227 91.0791C65.1574 90.1553 65.3789 89.2361 65.7183 88.2793Z" fill="#E0604F"/>
<path d="M10.8944 123.258L9.64062 122.914C11.9361 114.581 33.7266 98.1353 47.2968 91.1216L47.8907 92.2764C33.2459 99.8416 12.9071 115.952 10.8944 123.258Z" fill="#A58279"/>
<path d="M32.0919 102.09L30.8711 101.618C30.9324 101.463 36.6216 85.8141 33.5107 74.5441L34.7645 74.1953C37.9885 85.9037 32.3323 101.435 32.0919 102.09Z" fill="#A58279"/>
<path d="M125.338 123.258C123.425 116.325 105.424 102.519 89.5156 92.6204L90.2038 91.5175C102.638 99.2476 124.292 114.557 126.592 122.914L125.338 123.258Z" fill="#A58279"/>
<path d="M104.099 102.316C103.859 101.651 98.2449 85.8989 101.464 74.2189L102.718 74.5677C99.6024 85.8424 105.259 101.713 105.315 101.873L104.099 102.316Z" fill="#A58279"/>
<path d="M72.4053 224.156L71.8633 222.977C83.3595 217.646 82.2 208.172 82.1482 207.771L83.4302 207.592C83.4491 207.696 84.8066 218.405 72.4053 224.156Z" fill="#7F77AA"/>
<path d="M33.3217 205.339C32.123 205.35 30.9258 205.253 29.7441 205.052L30.0081 203.779C30.5407 203.887 43.1211 206.329 47.9666 195.295L49.1591 195.818C45.5532 204.029 37.8655 205.339 33.3217 205.339Z" fill="#7F77AA"/>
<path d="M109.477 203.152C99.1074 203.152 96.3076 195.139 96.2793 195.059L97.5095 194.649C97.6226 194.993 100.507 203.133 112.121 201.681L112.282 202.968C111.352 203.089 110.415 203.151 109.477 203.152Z" fill="#7F77AA"/>
<path d="M68.5545 172.811C55.4793 172.811 41.7252 171.845 31.2754 168.739L31.6478 167.495C58.9248 175.606 109.166 168.96 109.675 168.909L109.845 170.195C96.1444 171.874 82.3573 172.747 68.5545 172.811Z" fill="#A58279"/>
<path d="M65.5393 165.491C62.5981 165.491 60.3545 164.61 57.9977 163.686C56.8712 163.248 55.707 162.79 54.4532 162.437C52.4169 161.867 50.8803 162.437 49.0986 163.068C47.2132 163.757 45.0309 164.534 41.8398 164.176C39.896 163.96 38.0071 163.394 36.2638 162.508C34.5339 161.702 33.4922 161.211 31.126 162.295L30.584 161.112C33.4969 159.788 34.9581 160.467 36.8152 161.334C38.4352 162.161 40.1921 162.686 42.0001 162.885C44.8895 163.219 46.8126 162.517 48.6697 161.848C50.5268 161.178 52.3934 160.5 54.7973 161.188C56.1123 161.56 57.3049 162.027 58.4597 162.475C61.2359 163.563 63.8519 164.582 67.651 164.035C69.4312 163.78 71.1729 163.305 72.8359 162.621C74.5799 161.951 76.0882 161.367 78.7419 161.645C80.3337 161.83 81.8973 162.207 83.3988 162.767C85.2842 163.408 87.0612 164.016 90.1486 163.818C92.5053 163.667 93.9524 162.772 95.2203 161.984C96.7522 161.042 98.1992 160.132 100.589 161.112L101.461 161.475C104.76 162.861 106.985 163.78 109.38 162.38L110.03 163.502C107.079 165.227 104.374 164.101 100.957 162.673L100.094 162.314C98.3171 161.584 97.3602 162.182 95.9038 163.087C94.2382 164.265 92.2822 164.964 90.2476 165.109C87.7801 165.279 85.3058 164.899 83.0029 163.997C81.5945 163.468 80.1275 163.11 78.6335 162.932C76.2767 162.701 75.0418 163.172 73.3214 163.832C71.5695 164.557 69.7345 165.062 67.8584 165.336C67.0903 165.444 66.3151 165.496 65.5393 165.491Z" fill="#A58279"/>
<path d="M77.5539 37.9155C79.7363 39.3296 80.0049 41.248 80.349 41.3988C80.6931 41.5496 81.3389 42.0115 81.2257 42.4687C81.1126 42.926 81.2634 43.6518 81.6452 43.8451C82.027 44.0383 82.4842 44.6464 82.2203 45.179C81.9563 45.7116 81.32 48.092 82.0977 48.3371C82.8755 48.5822 83.837 46.9984 83.3138 46.1453C82.7906 45.2921 83.4175 44.3306 82.4277 43.4916C81.4378 42.6526 81.8432 41.5496 80.7025 40.5598C79.5619 39.5699 79.4629 37.8024 78.4448 37.3027C77.4267 36.8031 77.5539 37.9155 77.5539 37.9155Z" fill="#DEF6FF"/>
<path d="M60.8304 38.0428C58.648 39.4568 57.5026 42.0115 57.1585 42.1671C56.8145 42.3226 56.1687 42.7751 56.2818 43.2371C56.395 43.699 56.2441 44.4201 55.8623 44.6087C55.4805 44.7972 55.0233 45.41 55.2873 45.9473C55.5512 46.4847 55.8105 48.2428 55.0327 48.4879C54.255 48.733 53.6705 47.7667 54.1937 46.9136C54.7169 46.0604 54.09 45.0989 55.0799 44.2599C56.0697 43.4209 55.6644 42.3179 56.805 41.3234C57.9457 40.3288 58.6621 38.7451 59.6331 38.1323C61.1226 37.1613 60.8304 38.0428 60.8304 38.0428Z" fill="#DEF6FF"/>
<path d="M76.7755 53.2626C76.8886 52.6121 78.9154 52.1078 78.1895 53.2626C77.4637 54.4174 76.4974 54.8039 76.7755 53.2626Z" fill="#DEF6FF"/>
<path d="M80.0788 61.2756C78.4291 65.1973 69.5159 69.9815 62.0638 66.4605C60.693 65.804 59.4448 64.9176 58.3731 63.8398C57.6577 63.1286 57.0122 62.3504 56.4453 61.516C58.0008 63.2506 67.753 73.2527 80.0788 61.2756Z" fill="#E0604F"/>
<path d="M48.5645 91.0461L44.2422 95.5523C45.8322 100.002 48.7137 102.83 52.8868 104.037L57.3269 98.3804L48.5645 91.0461Z" fill="#FF9376"/>
<path d="M87.2827 90.8387L91.3457 95.5523C89.7557 100.002 86.8742 102.83 82.7011 104.037L78.459 97.909L87.2827 90.8387Z" fill="#FF9376"/>
</svg>
