<svg width="401" height="300" viewBox="0 0 401 300" fill="none" xmlns="http://www.w3.org/2000/svg">
<path d="M208 123.1C217.9 123.1 225.925 115.075 225.925 105.175C225.925 95.2753 217.9 87.25 208 87.25C198.1 87.25 190.075 95.2753 190.075 105.175C190.075 115.075 198.1 123.1 208 123.1Z" fill="#06C16A"/>
<path d="M208 123.725C197.775 123.725 189.45 115.4 189.45 105.175C189.45 94.95 197.775 86.625 208 86.625C218.225 86.625 226.55 94.95 226.55 105.175C226.55 115.4 218.225 123.725 208 123.725ZM208 87.875C198.475 87.875 190.7 95.625 190.7 105.175C190.7 114.725 198.45 122.475 208 122.475C217.55 122.475 225.3 114.725 225.3 105.175C225.3 95.625 217.55 87.875 208 87.875Z" fill="black"/>
<path d="M205.35 114.475L196.675 107.8C195.9 107.2 195.775 106.1 196.35 105.35C196.95 104.575 198.05 104.45 198.8 105.025L204.9 109.725L216.925 96.45C217.575 95.725 218.675 95.675 219.4 96.325C220.125 96.975 220.175 98.075 219.525 98.8L205.35 114.475Z" fill="white"/>
<path d="M63.45 100.375C74.1919 100.375 82.9 91.6669 82.9 80.925C82.9 70.183 74.1919 61.475 63.45 61.475C52.7081 61.475 44 70.183 44 80.925C44 91.6669 52.7081 100.375 63.45 100.375Z" fill="white"/>
<path d="M63.45 101C52.375 101 43.375 92 43.375 80.925C43.375 69.85 52.375 60.85 63.45 60.85C74.525 60.85 83.525 69.85 83.525 80.925C83.525 92 74.525 101 63.45 101ZM63.45 62.1C53.075 62.1 44.625 70.55 44.625 80.925C44.625 91.3 53.075 99.75 63.45 99.75C73.825 99.75 82.275 91.3 82.275 80.925C82.275 70.55 73.825 62.1 63.45 62.1Z" fill="black"/>
<path d="M73.725 71.175L68.875 73.65C64.55 69.375 59.725 69.475 55.75 71.925C51.15 74.75 48.675 82.775 52.1 89C52.875 90.375 54.025 91.45 55.175 92.375C51.25 89.85 48.625 85.425 48.625 80.4C48.625 72.55 55 66.175 62.85 66.175C67.225 66.15 71.125 68.1 73.725 71.175Z" fill="black"/>
<path d="M76.375 72.275L65.8249 77.7C65.1249 77.2 64.2749 76.875 63.3499 76.875C61.0499 76.875 59.2 78.725 59.2 81.025C59.2 83.325 61.0499 85.175 63.3499 85.175C65.6499 85.175 67.5 83.325 67.5 81.025C67.5 80.65 67.45 80.3 67.375 79.975L76.375 72.275ZM63.3499 82.925C62.2999 82.925 61.4749 82.075 61.4749 81.05C61.4749 80.025 62.3249 79.175 63.3499 79.175C64.3749 79.175 65.2249 80.025 65.2249 81.05C65.2249 82.075 64.3749 82.925 63.3499 82.925Z" fill="black"/>
<path d="M224.25 38H213.75V36.75H223.775C224.025 36 224.675 34.55 226.05 33.7C227.025 33.1 228.175 32.9 229.475 33.125C229.925 30.95 231.6 27.75 235.75 27.75C237.375 27.75 240.2 28.575 241.175 31.5C242.1 31.15 243.8 30.725 245.475 31.4C246.925 32 248.025 33.275 248.7 35.225H254V36.475H247.8L247.675 36.025C247.125 34.2 246.225 33.025 245.025 32.55C243.15 31.775 241.1 32.875 241.075 32.9L240.325 33.3L240.15 32.475C239.6 29.725 237.125 28.975 235.775 28.975C231.15 28.975 230.675 33.7 230.65 33.9L230.575 34.625L229.85 34.425C228.625 34.1 227.575 34.2 226.725 34.7C225.3 35.575 224.875 37.425 224.875 37.45L224.775 37.95L224.25 38Z" fill="black"/>
<path d="M329.625 77.875C338.462 77.875 345.625 70.7116 345.625 61.875C345.625 53.0384 338.462 45.875 329.625 45.875C320.788 45.875 313.625 53.0384 313.625 61.875C313.625 70.7116 320.788 77.875 329.625 77.875Z" fill="black"/>
<path d="M285.125 72.625H346.375C346.375 72.625 344.375 64.875 337.875 67.375C337.875 67.375 335.375 58.625 326.125 62.875C326.125 62.875 313.125 45.125 297.625 67.625C297.625 67.625 290.375 62.375 285.125 72.625Z" fill="white"/>
<path d="M347.175 73.25H284.1L284.575 72.35C286.45 68.7 288.775 66.525 291.525 65.875C294.2 65.225 296.475 66.225 297.475 66.8C302.65 59.45 308.125 55.7 313.75 55.625C320.425 55.525 325.1 60.625 326.325 62.125C329.225 60.9 331.775 60.775 333.95 61.775C336.55 62.975 337.8 65.45 338.275 66.6C339.975 66.075 341.525 66.175 342.925 66.9C345.925 68.45 346.95 72.325 347 72.5L347.175 73.25ZM286.175 72H345.5C345.075 70.9 344.075 68.875 342.325 67.975C341.1 67.35 339.675 67.35 338.1 67.95L337.45 68.2L337.25 67.55C337.25 67.525 336.25 64.2 333.375 62.875C331.45 62 329.1 62.175 326.35 63.45L325.875 63.675L325.575 63.275C325.525 63.2 320.725 56.775 313.7 56.875C308.375 56.95 303.125 60.7 298.1 68L297.725 68.525L297.2 68.15C297.175 68.125 294.7 66.375 291.725 67.1C289.65 67.6 287.775 69.25 286.175 72Z" fill="black"/>
<path d="M147.5 56.75H135V55.5H146.525C146.825 54.55 147.7 52.5 149.55 51.75C150.775 51.25 152.175 51.4 153.7 52.225C154.4 50.85 156.1 49.2 159.125 49.775L158.9 51C155.5 50.375 154.65 53.175 154.625 53.3L154.4 54.1L153.7 53.65C152.275 52.75 151.05 52.5 150.05 52.9C148.25 53.625 147.65 56.225 147.625 56.25L147.5 56.75Z" fill="black"/>
<path d="M82.125 223.625C82.125 223.625 87.625 233.375 125.625 236.625C125.625 236.625 147.625 236.875 150.875 225.625L149.625 217.875L84.625 215.625L82.125 223.625Z" fill="white"/>
<path d="M125.825 237.25C125.725 237.25 125.65 237.25 125.625 237.25H125.575C87.6749 234 81.825 224.35 81.575 223.925L81.45 223.7L84.175 214.975L84.65 215L150.175 217.275L151.525 225.675L151.475 225.8C148.275 236.925 128.225 237.25 125.825 237.25ZM125.65 236C126.45 236 147.05 235.975 150.225 225.575L149.075 218.475L85.075 216.25L82.8 223.5C83.3 224.125 85.125 226.15 90.125 228.425C95.675 230.975 106.325 234.35 125.65 236Z" fill="black"/>
<path d="M144.45 101.9C144.45 101.9 152.3 103.8 155.35 97.9251C156.05 96.6001 156.075 95.125 155.325 93.825C154.525 92.45 152.75 91 148.9 91.725C147.175 92.05 144.025 92.7 142.775 95.2L144.45 101.9Z" fill="black"/>
<path d="M147.275 102.825C145.575 102.825 144.325 102.525 144.3 102.525L143.925 102.425L142.1 95.15L142.2 94.95C143.625 92.1 147.1 91.45 148.775 91.125C152.975 90.325 154.95 91.975 155.85 93.525C156.7 94.975 156.725 96.65 155.9 98.225C153.925 102.075 150 102.825 147.275 102.825ZM144.95 101.375C146.475 101.65 152.325 102.4 154.8 97.65C155.425 96.475 155.4 95.225 154.775 94.15C153.75 92.425 151.825 91.825 149 92.35C147.575 92.625 144.65 93.175 143.425 95.3L144.95 101.375Z" fill="black"/>
<path d="M145.875 95.9C145.875 95.9 146.5 106.175 142.425 110.85L141.6 96.175L145.875 95.9Z" fill="black"/>
<path d="M117.525 134.175L120.925 113.175L135.65 115.05L136.025 135.275L117.525 134.175Z" fill="white"/>
<path d="M136.675 135.95L116.8 134.775L120.4 112.475L136.25 114.5L136.675 135.95ZM118.25 133.6L135.4 134.625L135.025 115.6L121.425 113.875L118.25 133.6Z" fill="black"/>
<path d="M120.275 114.725C120.275 114.725 125.05 126.875 135.25 125.025C135.25 125.025 143.375 124.025 143.9 111.95L144.25 94.825L120.125 93.275L119.35 105.325C119.35 105.325 115.525 105.825 116.05 109.65C116.575 113.475 120.275 114.725 120.275 114.725Z" fill="white"/>
<path d="M133.175 125.825C129.6 125.825 126.275 124.175 123.475 120.975C121.35 118.55 120.15 116 119.8 115.2C118.875 114.8 115.925 113.3 115.45 109.725C115.025 106.575 117.225 105.2 118.775 104.8L119.55 92.6L144.875 94.225L144.525 111.95C144.25 118.425 141.8 121.8 139.775 123.475C137.65 125.25 135.575 125.575 135.35 125.625C134.6 125.775 133.875 125.825 133.175 125.825ZM120.725 93.925L119.95 105.875L119.45 105.95C119.125 106 116.275 106.5 116.675 109.575C117.125 112.95 120.325 114.075 120.475 114.125L120.75 114.225L120.85 114.5C120.9 114.6 124.925 124.575 133.175 124.575C133.8 124.575 134.45 124.525 135.125 124.4H135.15C135.45 124.35 142.775 123.275 143.25 111.925L143.575 95.4L120.725 93.925Z" fill="black"/>
<path d="M124.15 97.575C124.15 97.575 116.25 98.525 116.325 99.5C116.425 101.025 116.675 103.325 117.425 105.875C117.425 105.875 120.675 104.375 122.025 107.275L123.775 107.65L124.15 97.575Z" fill="white"/>
<path d="M124.35 108.4L121.575 107.825L121.45 107.55C120.4 105.3 117.95 106.325 117.675 106.45L117.025 106.75L116.825 106.05C116.225 104.025 115.875 101.875 115.7 99.55C115.675 99.025 115.6 97.95 124.075 96.95L124.8 96.875L124.35 108.4ZM122.425 106.725L123.15 106.875L123.475 98.275C120.65 98.65 117.65 99.225 116.95 99.65C117.1 101.575 117.375 103.35 117.825 105.05C119.225 104.65 121.3 104.675 122.425 106.725Z" fill="black"/>
<path d="M116.55 92.45C118.125 86.15 126.75 81.975 135.95 84.675C141.6 86.35 143.275 90.55 143.275 90.55L136.925 92.45C136.925 92.45 131.375 95.625 128.325 98.225C125.9 100.3 123.375 101.05 121.75 101.3C116.45 102.075 116.775 101.275 116.775 101.275C115.825 98.5 115.95 94.825 116.55 92.45Z" fill="#06C16A"/>
<path d="M118.15 102.25C116.7 102.25 116.475 101.95 116.325 101.75C116.225 101.625 116.175 101.5 116.175 101.375C115.2 98.425 115.375 94.625 115.95 92.3C116.65 89.525 118.65 87.075 121.575 85.4C125.7 83.05 131 82.575 136.125 84.1C142 85.85 143.775 90.15 143.85 90.325L144.1 90.95L137.175 93.025C136.575 93.375 131.55 96.3 128.75 98.7C126.05 101.025 123.275 101.7 121.875 101.9C120.125 102.175 118.95 102.25 118.15 102.25ZM117.325 100.95C117.65 101.025 118.65 101.125 121.675 100.675C122.95 100.5 125.475 99.875 127.925 97.75C131 95.125 136.4 92.025 136.625 91.9L136.675 91.875L142.375 90.175C141.675 89 139.775 86.475 135.775 85.3C130.975 83.875 126.025 84.325 122.2 86.5C119.575 88 117.775 90.175 117.175 92.625C116.625 94.75 116.45 98.25 117.325 100.95Z" fill="black"/>
<path d="M124.775 100.075C124.775 100.075 135.675 103.875 142.775 95.225C142.775 95.225 146.525 89.65 153.575 92.15C153.575 92.15 150.1 88.65 140.975 91.325C138.5 92.05 135.625 92.65 131.675 95.225C127.975 97.675 125.975 99.9 124.775 100.075Z" fill="white"/>
<path d="M130.425 101.525C127.1 101.525 124.675 100.7 124.575 100.65L123 100.5C123 100.5 126.15 98.6 127.275 97.725C128.35 96.875 129.675 95.825 131.325 94.725C134.825 92.425 137.6 91.65 139.825 91.025C140.15 90.925 140.475 90.85 140.775 90.75C150.175 88 153.85 91.575 154 91.75L155.925 93.7L153.35 92.775C146.85 90.45 143.325 95.55 143.275 95.6L143.25 95.65C139.425 100.3 134.55 101.4 131.125 101.525C130.9 101.525 130.65 101.525 130.425 101.525ZM126.525 99.875C127.65 100.1 129.275 100.325 131.125 100.25C135.7 100.075 139.45 98.25 142.275 94.85C142.525 94.525 144.675 91.65 148.55 91C146.725 90.825 144.275 91 141.15 91.925C140.825 92.025 140.5 92.1 140.175 92.2C137.925 92.825 135.375 93.55 132.025 95.75C130.4 96.825 129.1 97.85 128.05 98.7C127.475 99.15 126.975 99.55 126.525 99.875Z" fill="black"/>
<path d="M149.35 274.375L146.5 216.6L94.875 213.975C88.475 226.5 81.3 274.375 81.3 274.375H114.25L117.35 263.05L118.85 274.375H149.35Z" fill="white"/>
<path d="M150 275H118.325L117.15 266.175L114.75 275H80.575L80.675 274.275C80.975 272.325 87.925 226.15 94.325 213.675L94.5 213.325L147.1 216L150 275ZM119.425 273.75H148.675L145.9 217.2L95.25 214.625C89.425 226.575 82.95 267.8 82.025 273.75H113.775L117.575 259.9L119.425 273.75Z" fill="black"/>
<path d="M136.825 129.925C136.825 129.925 136.375 140.375 117.35 128.075L97.7501 134.75C92.4251 136.575 88.2001 140.7 86.3251 146L76.9751 172.2L91.6751 175.2L82.3001 222.95C82.3001 222.95 95.1501 218.125 114.9 218.375C132.7 218.6 150.7 225.325 150.7 225.325L149.85 167.475L167.25 168.375L160.375 147.175C158.775 142.225 155.15 138.175 150.4 136.05L136.825 129.925Z" fill="#06C16A"/>
<path d="M151.3 226.25L150.45 225.925C150.275 225.85 132.325 219.225 114.875 219C95.475 218.75 82.625 223.5 82.5 223.55L81.45 223.95L90.925 175.7L76.125 172.675L85.75 145.8C87.725 140.275 92.025 136.05 97.575 134.15L117.45 127.375L117.7 127.55C127.575 133.95 132.15 134 134.225 132.925C136.1 131.95 136.2 129.925 136.2 129.9L136.25 128.975L150.65 135.475C155.55 137.675 159.3 141.875 160.95 146.975L168.1 169.025L150.45 168.125L151.3 226.25ZM113.425 217.75C113.9 217.75 114.4 217.75 114.9 217.75C130.4 217.95 146.25 223.125 150.05 224.45L149.2 166.825L166.375 167.7L159.75 147.375C158.2 142.6 154.7 138.675 150.125 136.625L137.3 130.85C137.05 131.775 136.425 133.2 134.8 134.05C131.375 135.825 125.475 134.05 117.275 128.775L97.95 135.35C92.775 137.1 88.75 141.075 86.9 146.225L77.775 171.725L92.375 174.725L83.075 222.025C86.45 220.925 97.7 217.75 113.425 217.75Z" fill="black"/>
<path d="M240.65 136.175H133.05V202.475H240.65V136.175Z" fill="white"/>
<path d="M241.275 203.1H132.425V135.55H241.275V203.1ZM133.675 201.85H240.025V136.8H133.675V201.85Z" fill="black"/>
<path d="M240.65 136.175H178.025V202.475H240.65V136.175Z" fill="#06C16A"/>
<path d="M241.275 203.1H177.4V135.55H241.275V203.1ZM178.65 201.85H240.025V136.8H178.65V201.85Z" fill="black"/>
<path d="M148.675 136.175V162.675L154.5 155.05L160.35 162.675V136.175H148.675Z" fill="white"/>
<path d="M160.975 164.5L154.5 156.075L148.05 164.5V135.55H160.975V164.5ZM154.5 154.025L159.725 160.825V136.8H149.3V160.825L154.5 154.025Z" fill="black"/>
<path d="M212.975 151.2V184.275C212.975 185.525 213.975 186.525 215.225 186.525C216.475 186.525 217.475 185.525 217.475 184.275V173.7L219.85 173.725C219.85 173.725 219.725 161.875 218.95 157.975C217.9 152.55 212.975 151.2 212.975 151.2Z" fill="black"/>
<path d="M207.85 152.375V158.675H206.175V152.375C206.175 151.725 205.65 151.2 205 151.2C204.35 151.2 203.825 151.725 203.825 152.375V158.675H202.175V152.35C202.175 151.7 201.65 151.175 201 151.175C200.35 151.175 199.825 151.7 199.825 152.35V158.675V159.175V160.325C199.825 162.35 201 164.125 202.725 164.95V184.25C202.725 185.5 203.725 186.5 204.975 186.5C206.225 186.5 207.225 185.5 207.225 184.25V164.95C208.925 164.1 210.1 162.35 210.1 160.325V159.2L210.125 152.375C210.125 151.725 209.6 151.2 208.95 151.2C208.35 151.225 207.85 151.75 207.85 152.375Z" fill="black"/>
<path d="M77.6749 172.325C77.6749 172.325 66.5499 199.925 76.7249 203.975C87.1499 208.125 142.275 203.45 142.275 203.45L157.325 206.125L171.075 202.4C171.075 202.4 171.075 196.125 163.925 196.125C158.725 196.125 149.9 191.5 149.9 191.5C149.9 191.5 153.075 182.35 148.175 182.05L140.725 191.25L98.3999 186.35L102.975 175.975L77.6749 172.325Z" fill="white"/>
<path d="M157.35 206.775L142.225 204.075C139 204.35 86.7999 208.65 76.4749 204.55C74.8249 203.9 73.5999 202.625 72.7999 200.825C69.0749 192.125 76.7499 172.9 77.0749 172.075L77.2499 171.625L103.85 175.475L99.2749 185.825L140.425 190.575L147.825 181.425L148.15 181.45C149.275 181.525 150.125 182 150.7 182.85C152.225 185.15 151.05 189.675 150.6 191.225C152.475 192.15 159.575 195.525 163.875 195.525C171.575 195.525 171.65 202.35 171.65 202.425V202.9L157.35 206.775ZM142.275 202.825L157.275 205.5L170.4 201.95C170.225 200.6 169.3 196.775 163.9 196.775C158.625 196.775 149.95 192.275 149.575 192.1L149.1 191.85L149.275 191.35C149.8 189.8 150.925 185.4 149.7 183.575C149.4 183.125 148.975 182.875 148.425 182.775L141 191.9L140.65 191.85L97.4749 186.875L102.075 176.475L78.0749 173C76.9249 175.975 70.7499 192.8 73.9749 200.325C74.6249 201.85 75.5999 202.85 76.9499 203.4C87.0999 207.45 141.65 202.875 142.2 202.825H142.275Z" fill="black"/>
<path d="M126.269 231.942L115.902 266.024L117.098 266.388L127.465 232.305L126.269 231.942Z" fill="black"/>
<path d="M107.564 164.608L102.064 176.36L103.196 176.889L108.696 165.138L107.564 164.608Z" fill="black"/>
<path d="M271.5 213.35L282.95 274.375H315L307.2 210.3L271.5 213.35Z" fill="black"/>
<path d="M315.7 275H282.425L270.75 212.8L307.75 209.65L315.7 275ZM283.475 273.75H314.3L306.65 210.975L272.25 213.925L283.475 273.75Z" fill="black"/>
<path d="M314.375 170.125C314.375 170.125 324.1 201.45 295.25 197.375L293.375 171L314.375 170.125Z" fill="white"/>
<path d="M300.1 198.375C298.55 198.375 296.925 198.25 295.175 198L294.675 197.925L292.725 170.4L314.85 169.475L315 169.925C315.2 170.55 319.675 185.375 312.825 193.425C310 196.725 305.75 198.375 300.1 198.375ZM295.85 196.825C303.3 197.775 308.675 196.375 311.85 192.625C317.625 185.85 314.6 173.325 313.9 170.775L294.025 171.625L295.85 196.825Z" fill="black"/>
<path d="M294.25 210L271.975 274.375H240.85L250.3 207.85L294.25 210Z" fill="black"/>
<path d="M272.425 275H240.125L249.775 207.2L295.125 209.4L272.425 275ZM241.55 273.75H271.525L293.4 210.575L250.85 208.5L241.55 273.75Z" fill="black"/>
<path d="M241.5 169.975L253.05 175.2L247.25 214.875C247.25 214.875 281.125 229.625 310.1 214.875L305.5 172.15L315.8 171.225L301.85 139.775L282.375 134.575L271.85 135.375L258.05 141.3C253.5 143.25 249.95 147 248.25 151.625L241.5 169.975Z" fill="white"/>
<path d="M280.825 222.05C276 222.05 271.55 221.625 267.725 221.025C255.7 219.2 247.1 215.5 247 215.45L246.55 215.25L252.35 175.575L240.7 170.3L247.625 151.425C249.375 146.65 253.075 142.75 257.775 140.725L271.675 134.75L282.4 133.95L282.5 133.975L302.275 139.25L316.7 171.75L306.175 172.675L310.75 215.25L310.375 215.45C300.475 220.475 290 222.05 280.825 222.05ZM247.95 214.5C249.825 215.275 257.6 218.225 267.95 219.8C278.775 221.45 294.75 221.85 309.45 214.525L304.825 171.6L314.875 170.7L301.4 140.325L282.325 135.25L272.025 136.025L258.325 141.9C253.95 143.775 250.5 147.425 248.875 151.875L242.35 169.65L253.8 174.825L247.95 214.5Z" fill="black"/>
<path d="M265.575 97.375C265.575 97.375 254.575 126.975 270.15 127.3V140.725H288.775V99.5L265.575 97.375Z" fill="white"/>
<path d="M289.375 141.325H269.5V127.875C266.725 127.675 264.6 126.525 263.2 124.475C257.85 116.6 264.675 97.95 264.95 97.15L265.125 96.7L289.375 98.925V141.325ZM270.775 140.075H288.15V100.075L266 98.025C265 100.925 259.7 117.05 264.25 123.75C265.55 125.65 267.475 126.575 270.15 126.65H270.775V140.075Z" fill="black"/>
<path d="M313.625 127.125C309.35 125.75 304.45 126.275 301.425 114C299.425 105.925 296.7 92.475 276.7 91.725C270.75 91.5 257.475 92.95 266.325 112.175C266.325 112.175 270.025 123.325 268.45 142.1C267.15 157.85 274.4 192.3 317.45 174.3C331.25 168.5 346.45 137.65 313.625 127.125Z" fill="black"/>
<path d="M241.625 169.375L235 188.775L206.75 198.75L192.8 197.1C192.8 197.1 191.95 199.825 197.1 202.4H182.5C182.5 202.4 186.625 204.75 201.575 208.425C201.575 208.425 243.4 202.35 248.9 198.1C253.125 194.825 263.4 175.85 263.4 175.85L241.625 169.375Z" fill="white"/>
<path d="M201.525 209.075L201.4 209.05C186.525 205.4 182.325 203.075 182.15 202.975L180.1 201.8H194.8C191.45 199.375 192.125 197.05 192.175 196.925L192.325 196.425L206.65 198.1L234.5 188.3L241.225 168.6L264.3 175.5L263.925 176.175C263.5 176.95 253.55 195.3 249.25 198.625C243.675 202.925 203.35 208.825 201.625 209.075H201.525ZM185.475 203.05C188.15 204.075 193.125 205.725 201.575 207.8C204.05 207.425 243.325 201.625 248.5 197.625C252.125 194.825 260.6 179.65 262.475 176.25L242.05 170.15L235.5 189.275L206.825 199.4L193.375 197.825C193.475 198.625 194.125 200.25 197.35 201.875L199.725 203.05H185.475Z" fill="black"/>
<path d="M288.258 227.179L278.761 255.423L279.946 255.821L289.443 227.577L288.258 227.179Z" fill="white"/>
<path d="M347.025 274H51.675V275.25H347.025V274Z" fill="black"/>
</svg>
