<svg width="110" height="225" viewBox="0 0 110 225" fill="none" xmlns="http://www.w3.org/2000/svg">
<path d="M93.1919 225L16.7509 224.953C12.3357 224.95 8.10241 223.194 4.98149 220.071C1.86056 216.948 0.107421 212.713 0.107422 208.298L0.142473 16.6494C0.14324 14.4617 0.574992 12.2956 1.41307 10.2748C2.25114 8.254 3.47912 6.41811 5.02686 4.872C6.5746 3.32589 8.41178 2.09984 10.4334 1.26389C12.4551 0.427943 14.6217 -0.00153071 16.8094 4.09922e-06L93.2504 0.0467391C97.6656 0.0498364 101.899 1.80594 105.02 4.92906C108.141 8.05218 109.894 12.2867 109.894 16.7019L109.853 208.351C109.852 210.538 109.421 212.703 108.583 214.724C107.745 216.744 106.518 218.58 104.971 220.126C103.424 221.672 101.587 222.898 99.5661 223.734C97.5451 224.571 95.3791 225.001 93.1919 225Z" fill="#263238"/>
<path d="M93.1681 6.82332H78.3473C77.3721 6.84478 76.4454 7.25246 75.7706 7.95678C75.0959 8.66111 74.7283 9.60448 74.7487 10.5796V13.2669C74.7595 13.7503 74.675 14.231 74.5001 14.6817C74.3251 15.1324 74.063 15.5442 73.7288 15.8936C73.3946 16.2429 72.9949 16.523 72.5524 16.7179C72.1099 16.9127 71.6334 17.0185 71.1501 17.0291H42.2561C41.7715 17.017 41.294 16.9094 40.851 16.7125C40.408 16.5156 40.0082 16.2332 39.6745 15.8816C39.3408 15.53 39.0797 15.116 38.9062 14.6633C38.7327 14.2106 38.6502 13.7282 38.6634 13.2435V10.5563C38.6853 9.57955 38.3186 8.63406 37.6439 7.92754C36.9691 7.22101 36.0415 6.81125 35.0648 6.78827H29.848H16.879C13.7803 6.78827 10.8085 8.01923 8.61734 10.2104C6.42621 12.4015 5.19524 15.3733 5.19524 18.472L5.17188 205.5C5.17188 208.599 6.40284 211.57 8.59397 213.761C9.67891 214.846 10.9669 215.707 12.3845 216.294C13.802 216.881 15.3213 217.184 16.8556 217.184L93.1506 217.23C96.2493 217.23 99.2211 215.999 101.412 213.808C103.603 211.617 104.834 208.645 104.834 205.547L104.869 18.4837C104.863 15.386 103.627 12.4175 101.433 10.231C99.2386 8.04437 96.2658 6.81867 93.1681 6.82332V6.82332Z" fill="white"/>
<path d="M104.823 18.4896C104.823 15.3959 103.596 12.4285 101.411 10.2382C99.2261 8.04791 96.2618 6.81353 93.1681 6.80579H78.3473C77.3721 6.82726 76.4454 7.23493 75.7706 7.93926C75.0959 8.64359 74.7283 9.58696 74.7487 10.5621V13.2494C74.7595 13.7327 74.675 14.2135 74.5001 14.6642C74.3251 15.1149 74.063 15.5267 73.7288 15.876C73.3946 16.2254 72.9949 16.5055 72.5524 16.7003C72.1099 16.8952 71.6334 17.0009 71.1501 17.0116H42.2561C41.2805 16.9871 40.3543 16.5766 39.6808 15.8703C39.0073 15.1639 38.6414 14.2193 38.6634 13.2435V10.5563C38.6853 9.57955 38.3186 8.63406 37.6439 7.92754C36.9691 7.22101 36.0415 6.81125 35.0648 6.78827H29.848H16.879C13.7803 6.78827 10.8085 8.01923 8.61734 10.2104C6.42621 12.4015 5.19524 15.3733 5.19524 18.472L5.17188 36.3248H104.823V18.4896Z" fill="#F5F5F5"/>
<path d="M96.7144 25.0617C96.7144 25.1143 94.9326 25.1785 92.7302 25.196C91.3999 25.2418 90.0681 25.2184 88.7402 25.1259C88.7402 25.0734 90.522 25.0091 92.7302 24.9916C94.0586 24.9457 95.3885 24.9691 96.7144 25.0617V25.0617Z" fill="#263238"/>
<path d="M96.732 27.1005C95.4072 27.2146 94.0773 27.2595 92.7478 27.2348C90.5454 27.2348 88.7578 27.2348 88.7578 27.1706C90.0826 27.0564 91.4125 27.0116 92.742 27.0362C94.0722 26.9904 95.4039 27.0119 96.732 27.1005V27.1005Z" fill="#263238"/>
<path d="M96.7496 29.1451C96.7496 29.1977 94.9678 29.2561 92.7654 29.2795C90.563 29.3029 88.7754 29.2795 88.7754 29.2094C90.1002 29.0952 91.4301 29.0504 92.7596 29.075C94.0899 29.0293 95.4217 29.0527 96.7496 29.1451V29.1451Z" fill="#263238"/>
<path d="M21.4766 107.105V110.721H25.0927V107.105V103.489H21.4766V107.105Z" fill="#2196F3"/>
<path d="M25.0927 85.4025H21.4766V89.0186H25.0927V85.4025Z" fill="#2196F3"/>
<path d="M47.4443 125.227H43.8281V128.843H47.4443V125.227Z" fill="#2196F3"/>
<path d="M25.0927 92.6347V96.2508H21.4766V99.8669H25.0927V103.489H28.7088H32.3308V107.105H35.9469V103.489H39.563V99.8669V96.2508H35.9469V99.8669H32.3308H28.7088V96.2508V92.6347V89.0186H25.0927V92.6347Z" fill="#2196F3"/>
<path d="M32.331 85.4025H28.709V89.0186H32.331H35.9471V85.4025H32.331Z" fill="#2196F3"/>
<path d="M48.6075 114.477H50.547V110.861H48.6075H46.6621V114.477H48.6075Z" fill="#2196F3"/>
<path d="M39.5634 89.0186H35.9473V92.6347H39.5634V89.0186Z" fill="#2196F3"/>
<path d="M64.8759 103.489H61.2598V107.105H64.8759V103.489Z" fill="#2196F3"/>
<path d="M68.4989 63.6998H64.8828V67.316H68.4989V63.6998Z" fill="#2196F3"/>
<path d="M46.7967 92.6347V89.0186H50.4128V85.4024H46.7967V81.7863H43.1806V85.4024H39.5645V89.0186H43.1806V92.6347V96.2508V99.8669V103.489H46.7967V99.8669V96.2508H50.4128V92.6347H46.7967Z" fill="#2196F3"/>
<path d="M64.8817 128.802H68.4979V125.186H64.8817H61.2656V128.802H64.8817Z" fill="#2196F3"/>
<path d="M61.2607 63.6998H57.6445V67.316H61.2607V63.6998Z" fill="#2196F3"/>
<path d="M60.3601 92.6347V89.0186H56.7439V85.4025H53.122V89.0186V92.6347H49.5059V96.2508H53.122H56.7439V92.6347H60.3601Z" fill="#2196F3"/>
<path d="M80.7724 85.4025H77.1562V89.0186H80.7724V85.4025Z" fill="#2196F3"/>
<path d="M43.2841 103.489H39.668V107.105H43.2841V103.489Z" fill="#2196F3"/>
<path d="M57.6444 81.7863V78.1702H61.2663V74.5482H64.8824H68.4986V70.9321H64.8824V67.316H61.2663V70.9321H57.6444V74.5482H54.0282V78.1702H50.4121V81.7863H54.0282H57.6444Z" fill="#2196F3"/>
<path d="M57.6444 107.105V103.489H61.2663V99.8669H57.6444H54.0282V103.489H50.4121V107.105H54.0282H57.6444Z" fill="#2196F3"/>
<path d="M54.0281 67.316V63.6998H50.4119H46.7958V67.316H43.1797V70.9321H46.7958H50.4119V67.316H54.0281Z" fill="#2196F3"/>
<path d="M54.0282 70.9321H50.4121V74.5483H54.0282V70.9321Z" fill="#2196F3"/>
<path d="M63.0712 85.4024H59.4551V89.0185V92.6347V96.2508H63.0712H66.6873V92.6347H63.0712V89.0185H66.6873V85.4024H70.3035V81.7863H66.6873V78.1702H63.0712V81.7863V85.4024Z" fill="#2196F3"/>
<path d="M50.411 74.5541H46.7949V78.1702H50.411V74.5541Z" fill="#2196F3"/>
<path d="M61.2656 110.721V114.337H64.8817H68.4979V110.721H72.114H75.7301V107.105H72.114H68.4979H64.8817V110.721H61.2656Z" fill="#2196F3"/>
<path d="M80.7724 96.2508H77.1562V99.8669H80.7724V96.2508Z" fill="#2196F3"/>
<path d="M68.4989 99.8669H64.8828V103.483H68.4989V99.8669Z" fill="#2196F3"/>
<path d="M77.5408 89.0186H73.9189H70.3027V92.6347H73.9189V96.2508H77.5408V92.6347V89.0186Z" fill="#2196F3"/>
<path d="M75.7314 99.8669H72.1152V103.483H75.7314V99.8669Z" fill="#2196F3"/>
<path d="M35.9471 121.64H46.8014V107.099H32.2375V110.721H28.7324V114.337H32.2375V117.953H28.7324V121.57H32.2375V121.64H32.3077V125.186H28.7324V132.418H32.3544V128.802H35.9705V121.64H35.9471ZM44.0148 109.886V118.923H34.9715V109.886H44.0148Z" fill="#2196F3"/>
<path d="M82.9627 107.105H86.5788V103.489H82.9627H79.3466H75.7305V107.105H79.3466H82.9627Z" fill="#2196F3"/>
<path d="M82.9629 92.6347H86.579V89.0186V85.4025H82.9629V89.0186V92.6347Z" fill="#2196F3"/>
<path d="M54.163 110.861H50.5469V114.477V118.094H54.163V114.477V110.861Z" fill="#2196F3"/>
<path d="M90.1943 107.105H86.5781V110.721H90.1943V107.105Z" fill="#2196F3"/>
<path d="M90.2001 99.8669V96.2508H86.5781V99.8669V103.489H90.2001V99.8669Z" fill="#2196F3"/>
<path d="M25.0927 125.186H21.4766V128.802V132.424H25.0927V128.802V125.186Z" fill="#2196F3"/>
<path d="M90.1959 81.7863V63.6765H72.1152V81.7863H90.1959ZM74.8259 79.0699V66.4164H87.4852V79.0699H74.8259Z" fill="#2196F3"/>
<path d="M84.7733 69.127H77.541V76.3592H84.7733V69.127Z" fill="#2196F3"/>
<path d="M90.1959 114.337H72.1152V132.418H90.2251L90.1959 114.337ZM74.8259 129.69V117.048H87.4852V129.69H74.8259Z" fill="#2196F3"/>
<path d="M84.7733 119.764H77.541V126.997H84.7733V119.764Z" fill="#2196F3"/>
<path d="M21.4297 63.6765V81.7863H39.5395V63.6765H21.4297ZM36.8055 66.393V79.0465H24.1462V66.4164L36.8055 66.393Z" fill="#2196F3"/>
<path d="M34.0897 69.127H26.8574V76.3592H34.0897V69.127Z" fill="#2196F3"/>
<path d="M16.2768 76.3066V63.4545C16.1939 62.2716 16.5565 61.1005 17.2933 60.1713C17.7337 59.6845 18.2764 59.3011 18.8823 59.0486C19.4883 58.7961 20.1426 58.6808 20.7984 58.7109H34.3165C34.4235 58.7109 34.526 58.6684 34.6016 58.5928C34.6772 58.5172 34.7196 58.4147 34.7196 58.3078C34.7196 58.2009 34.6772 58.0984 34.6016 58.0228C34.526 57.9472 34.4235 57.9047 34.3165 57.9047H20.962C19.832 57.8472 18.7107 58.1301 17.7431 58.7167C17.0464 59.1788 16.4741 59.8053 16.0768 60.5409C15.6795 61.2765 15.4693 62.0985 15.4648 62.9346C15.4297 65.0493 15.4648 67.1699 15.4648 69.2788V76.2891C15.4767 76.3884 15.5246 76.4799 15.5994 76.5462C15.6743 76.6126 15.7708 76.6492 15.8708 76.6492C15.9708 76.6492 16.0674 76.6126 16.1422 76.5462C16.217 76.4799 16.2649 76.3884 16.2768 76.2891V76.3066Z" fill="#FF725E"/>
<path d="M33.1376 138.528H20.2855C19.1062 138.611 17.939 138.248 17.014 137.512C16.5272 137.072 16.1438 136.529 15.8913 135.923C15.6388 135.317 15.5235 134.663 15.5535 134.007V120.483C15.5535 120.376 15.5111 120.273 15.4355 120.198C15.3599 120.122 15.2574 120.08 15.1505 120.08C15.0435 120.08 14.941 120.122 14.8654 120.198C14.7898 120.273 14.7474 120.376 14.7474 120.483V133.843C14.6906 134.973 14.9734 136.094 15.5594 137.062C16.0225 137.757 16.6494 138.328 17.3848 138.725C18.1203 139.121 18.9418 139.33 19.7772 139.335C21.892 139.376 24.0067 139.335 26.1215 139.335H33.1318C33.2387 139.335 33.3412 139.292 33.4168 139.217C33.4924 139.141 33.5349 139.038 33.5349 138.932C33.5349 138.825 33.4924 138.722 33.4168 138.647C33.3412 138.571 33.2387 138.528 33.1318 138.528H33.1376Z" fill="#FF725E"/>
<path d="M94.9682 120.343V133.195C95.0476 134.374 94.6852 135.54 93.9517 136.466C93.5113 136.953 92.9687 137.337 92.3627 137.589C91.7567 137.842 91.1024 137.957 90.4466 137.927H76.9226C76.8157 137.927 76.7132 137.969 76.6376 138.045C76.562 138.12 76.5195 138.223 76.5195 138.33C76.5195 138.437 76.562 138.539 76.6376 138.615C76.7132 138.69 76.8157 138.733 76.9226 138.733H90.283C91.4129 138.789 92.5338 138.506 93.5019 137.921C94.1971 137.458 94.768 136.831 95.1642 136.095C95.5605 135.36 95.77 134.538 95.7744 133.703C95.8153 131.588 95.7744 129.474 95.7744 127.359V120.343C95.7744 120.236 95.7319 120.133 95.6563 120.058C95.5807 119.982 95.4782 119.94 95.3713 119.94C95.2644 119.94 95.1618 119.982 95.0862 120.058C95.0107 120.133 94.9682 120.236 94.9682 120.343V120.343Z" fill="#FF725E"/>
<path d="M77.1551 58.7284H90.0072C91.1872 58.6479 92.3545 59.0126 93.2786 59.7508C93.7655 60.1912 94.1489 60.7338 94.4014 61.3398C94.6539 61.9458 94.7692 62.6001 94.7391 63.2559V76.7623C94.7391 76.8692 94.7816 76.9718 94.8572 77.0473C94.9328 77.1229 95.0353 77.1654 95.1422 77.1654C95.2491 77.1654 95.3516 77.1229 95.4272 77.0473C95.5028 76.9718 95.5453 76.8692 95.5453 76.7623V63.4195C95.6027 62.2894 95.3199 61.1681 94.7333 60.2006C94.2715 59.5035 93.6451 58.931 92.9095 58.5336C92.1738 58.1362 91.3516 57.9262 90.5154 57.9223C88.4007 57.8872 86.2859 57.9223 84.1712 57.9223H77.1609C77.054 57.9223 76.9515 57.9647 76.8759 58.0403C76.8003 58.1159 76.7578 58.2184 76.7578 58.3253C76.7578 58.4322 76.8003 58.5348 76.8759 58.6104C76.9515 58.686 77.054 58.7284 77.1609 58.7284H77.1551Z" fill="#FF725E"/>
<path d="M85.7727 191.66C85.7727 191.742 71.9917 191.812 54.9977 191.812C38.0037 191.812 24.2285 191.742 24.2285 191.66C24.2285 191.579 38.0037 191.509 54.9977 191.509C71.9917 191.509 85.7727 191.579 85.7727 191.66Z" fill="#263238"/>
<path d="M27.7389 168.939C28.3589 168.939 28.8956 169.042 29.3489 169.249C29.8089 169.455 30.1622 169.749 30.4089 170.129C30.6556 170.509 30.7789 170.959 30.7789 171.479C30.7789 171.992 30.6556 172.442 30.4089 172.829C30.1622 173.209 29.8089 173.502 29.3489 173.709C28.8956 173.909 28.3589 174.009 27.7389 174.009H26.3289V175.939H24.7089V168.939H27.7389ZM27.6489 172.689C28.1356 172.689 28.5056 172.585 28.7589 172.379C29.0122 172.165 29.1389 171.865 29.1389 171.479C29.1389 171.085 29.0122 170.785 28.7589 170.579C28.5056 170.365 28.1356 170.259 27.6489 170.259H26.3289V172.689H27.6489ZM33.3155 171.269C33.5021 171.009 33.7521 170.812 34.0655 170.679C34.3855 170.545 34.7521 170.479 35.1655 170.479V171.919C34.9921 171.905 34.8755 171.899 34.8155 171.899C34.3688 171.899 34.0188 172.025 33.7655 172.279C33.5121 172.525 33.3855 172.899 33.3855 173.399V175.939H31.8255V170.559H33.3155V171.269ZM38.6042 176.019C38.0376 176.019 37.5276 175.902 37.0742 175.669C36.6276 175.429 36.2776 175.099 36.0242 174.679C35.7709 174.259 35.6442 173.782 35.6442 173.249C35.6442 172.715 35.7709 172.239 36.0242 171.819C36.2776 171.399 36.6276 171.072 37.0742 170.839C37.5276 170.599 38.0376 170.479 38.6042 170.479C39.1709 170.479 39.6776 170.599 40.1242 170.839C40.5709 171.072 40.9209 171.399 41.1742 171.819C41.4276 172.239 41.5542 172.715 41.5542 173.249C41.5542 173.782 41.4276 174.259 41.1742 174.679C40.9209 175.099 40.5709 175.429 40.1242 175.669C39.6776 175.902 39.1709 176.019 38.6042 176.019ZM38.6042 174.739C39.0042 174.739 39.3309 174.605 39.5842 174.339C39.8442 174.065 39.9742 173.702 39.9742 173.249C39.9742 172.795 39.8442 172.435 39.5842 172.169C39.3309 171.895 39.0042 171.759 38.6042 171.759C38.2042 171.759 37.8742 171.895 37.6142 172.169C37.3542 172.435 37.2242 172.795 37.2242 173.249C37.2242 173.702 37.3542 174.065 37.6142 174.339C37.8742 174.605 38.2042 174.739 38.6042 174.739ZM45.197 176.019C44.6236 176.019 44.107 175.902 43.647 175.669C43.1936 175.429 42.837 175.099 42.577 174.679C42.3236 174.259 42.197 173.782 42.197 173.249C42.197 172.715 42.3236 172.239 42.577 171.819C42.837 171.399 43.1936 171.072 43.647 170.839C44.107 170.599 44.6236 170.479 45.197 170.479C45.7636 170.479 46.257 170.599 46.677 170.839C47.1036 171.072 47.4136 171.409 47.607 171.849L46.397 172.499C46.117 172.005 45.7136 171.759 45.187 171.759C44.7803 171.759 44.4436 171.892 44.177 172.159C43.9103 172.425 43.777 172.789 43.777 173.249C43.777 173.709 43.9103 174.072 44.177 174.339C44.4436 174.605 44.7803 174.739 45.187 174.739C45.7203 174.739 46.1236 174.492 46.397 173.999L47.607 174.659C47.4136 175.085 47.1036 175.419 46.677 175.659C46.257 175.899 45.7636 176.019 45.197 176.019ZM53.7068 173.269C53.7068 173.289 53.6968 173.429 53.6768 173.689H49.6068C49.6801 174.022 49.8535 174.285 50.1268 174.479C50.4001 174.672 50.7401 174.769 51.1468 174.769C51.4268 174.769 51.6735 174.729 51.8868 174.649C52.1068 174.562 52.3101 174.429 52.4968 174.249L53.3268 175.149C52.8201 175.729 52.0801 176.019 51.1068 176.019C50.5001 176.019 49.9635 175.902 49.4968 175.669C49.0301 175.429 48.6701 175.099 48.4168 174.679C48.1635 174.259 48.0368 173.782 48.0368 173.249C48.0368 172.722 48.1601 172.249 48.4068 171.829C48.6601 171.402 49.0035 171.072 49.4368 170.839C49.8768 170.599 50.3668 170.479 50.9068 170.479C51.4335 170.479 51.9101 170.592 52.3368 170.819C52.7635 171.045 53.0968 171.372 53.3368 171.799C53.5835 172.219 53.7068 172.709 53.7068 173.269ZM50.9168 171.659C50.5635 171.659 50.2668 171.759 50.0268 171.959C49.7868 172.159 49.6401 172.432 49.5868 172.779H52.2368C52.1835 172.439 52.0368 172.169 51.7968 171.969C51.5568 171.762 51.2635 171.659 50.9168 171.659ZM56.5554 176.019C56.1087 176.019 55.6721 175.965 55.2454 175.859C54.8187 175.745 54.4787 175.605 54.2254 175.439L54.7454 174.319C54.9854 174.472 55.2754 174.599 55.6154 174.699C55.9554 174.792 56.2887 174.839 56.6154 174.839C57.2754 174.839 57.6054 174.675 57.6054 174.349C57.6054 174.195 57.5154 174.085 57.3354 174.019C57.1554 173.952 56.8787 173.895 56.5054 173.849C56.0654 173.782 55.7021 173.705 55.4154 173.619C55.1287 173.532 54.8787 173.379 54.6654 173.159C54.4587 172.939 54.3554 172.625 54.3554 172.219C54.3554 171.879 54.4521 171.579 54.6454 171.319C54.8454 171.052 55.1321 170.845 55.5054 170.699C55.8854 170.552 56.3321 170.479 56.8454 170.479C57.2254 170.479 57.6021 170.522 57.9754 170.609C58.3554 170.689 58.6687 170.802 58.9154 170.949L58.3954 172.059C57.9221 171.792 57.4054 171.659 56.8454 171.659C56.5121 171.659 56.2621 171.705 56.0954 171.799C55.9287 171.892 55.8454 172.012 55.8454 172.159C55.8454 172.325 55.9354 172.442 56.1154 172.509C56.2954 172.575 56.5821 172.639 56.9754 172.699C57.4154 172.772 57.7754 172.852 58.0554 172.939C58.3354 173.019 58.5787 173.169 58.7854 173.389C58.9921 173.609 59.0954 173.915 59.0954 174.309C59.0954 174.642 58.9954 174.939 58.7954 175.199C58.5954 175.459 58.3021 175.662 57.9154 175.809C57.5354 175.949 57.0821 176.019 56.5554 176.019ZM61.8679 176.019C61.4212 176.019 60.9846 175.965 60.5579 175.859C60.1312 175.745 59.7912 175.605 59.5379 175.439L60.0579 174.319C60.2979 174.472 60.5879 174.599 60.9279 174.699C61.2679 174.792 61.6012 174.839 61.9279 174.839C62.5879 174.839 62.9179 174.675 62.9179 174.349C62.9179 174.195 62.8279 174.085 62.6479 174.019C62.4679 173.952 62.1912 173.895 61.8179 173.849C61.3779 173.782 61.0146 173.705 60.7279 173.619C60.4412 173.532 60.1912 173.379 59.9779 173.159C59.7712 172.939 59.6679 172.625 59.6679 172.219C59.6679 171.879 59.7646 171.579 59.9579 171.319C60.1579 171.052 60.4446 170.845 60.8179 170.699C61.1979 170.552 61.6446 170.479 62.1579 170.479C62.5379 170.479 62.9146 170.522 63.2879 170.609C63.6679 170.689 63.9812 170.802 64.2279 170.949L63.7079 172.059C63.2346 171.792 62.7179 171.659 62.1579 171.659C61.8246 171.659 61.5746 171.705 61.4079 171.799C61.2412 171.892 61.1579 172.012 61.1579 172.159C61.1579 172.325 61.2479 172.442 61.4279 172.509C61.6079 172.575 61.8946 172.639 62.2879 172.699C62.7279 172.772 63.0879 172.852 63.3679 172.939C63.6479 173.019 63.8912 173.169 64.0979 173.389C64.3046 173.609 64.4079 173.915 64.4079 174.309C64.4079 174.642 64.3079 174.939 64.1079 175.199C63.9079 175.459 63.6146 175.662 63.2279 175.809C62.8479 175.949 62.3946 176.019 61.8679 176.019ZM65.3704 170.559H66.9304V175.939H65.3704V170.559ZM66.1504 169.809C65.8637 169.809 65.6304 169.725 65.4504 169.559C65.2704 169.392 65.1804 169.185 65.1804 168.939C65.1804 168.692 65.2704 168.485 65.4504 168.319C65.6304 168.152 65.8637 168.069 66.1504 168.069C66.4371 168.069 66.6704 168.149 66.8504 168.309C67.0304 168.469 67.1204 168.669 67.1204 168.909C67.1204 169.169 67.0304 169.385 66.8504 169.559C66.6704 169.725 66.4371 169.809 66.1504 169.809ZM71.6482 170.479C72.3149 170.479 72.8515 170.679 73.2582 171.079C73.6715 171.479 73.8782 172.072 73.8782 172.859V175.939H72.3182V173.099C72.3182 172.672 72.2249 172.355 72.0382 172.149C71.8515 171.935 71.5815 171.829 71.2282 171.829C70.8349 171.829 70.5215 171.952 70.2882 172.199C70.0549 172.439 69.9382 172.799 69.9382 173.279V175.939H68.3782V170.559H69.8682V171.189C70.0749 170.962 70.3315 170.789 70.6382 170.669C70.9449 170.542 71.2815 170.479 71.6482 170.479ZM80.9009 170.559V175.039C80.9009 176.025 80.6442 176.759 80.1309 177.239C79.6175 177.719 78.8675 177.959 77.8809 177.959C77.3609 177.959 76.8675 177.895 76.4009 177.769C75.9342 177.642 75.5475 177.459 75.2409 177.219L75.8609 176.099C76.0875 176.285 76.3742 176.432 76.7209 176.539C77.0675 176.652 77.4142 176.709 77.7609 176.709C78.3009 176.709 78.6975 176.585 78.9509 176.339C79.2109 176.099 79.3409 175.732 79.3409 175.239V175.009C78.9342 175.455 78.3675 175.679 77.6409 175.679C77.1475 175.679 76.6942 175.572 76.2809 175.359C75.8742 175.139 75.5509 174.832 75.3109 174.439C75.0709 174.045 74.9509 173.592 74.9509 173.079C74.9509 172.565 75.0709 172.112 75.3109 171.719C75.5509 171.325 75.8742 171.022 76.2809 170.809C76.6942 170.589 77.1475 170.479 77.6409 170.479C78.4209 170.479 79.0142 170.735 79.4209 171.249V170.559H80.9009ZM77.9509 174.399C78.3642 174.399 78.7009 174.279 78.9609 174.039C79.2275 173.792 79.3609 173.472 79.3609 173.079C79.3609 172.685 79.2275 172.369 78.9609 172.129C78.7009 171.882 78.3642 171.759 77.9509 171.759C77.5375 171.759 77.1975 171.882 76.9309 172.129C76.6642 172.369 76.5309 172.685 76.5309 173.079C76.5309 173.472 76.6642 173.792 76.9309 174.039C77.1975 174.279 77.5375 174.399 77.9509 174.399ZM82.9428 176.019C82.6695 176.019 82.4395 175.925 82.2528 175.739C82.0661 175.552 81.9728 175.319 81.9728 175.039C81.9728 174.752 82.0661 174.522 82.2528 174.349C82.4395 174.169 82.6695 174.079 82.9428 174.079C83.2161 174.079 83.4461 174.169 83.6328 174.349C83.8195 174.522 83.9128 174.752 83.9128 175.039C83.9128 175.319 83.8195 175.552 83.6328 175.739C83.4461 175.925 83.2161 176.019 82.9428 176.019ZM85.56 176.019C85.2867 176.019 85.0567 175.925 84.87 175.739C84.6833 175.552 84.59 175.319 84.59 175.039C84.59 174.752 84.6833 174.522 84.87 174.349C85.0567 174.169 85.2867 174.079 85.56 174.079C85.8333 174.079 86.0633 174.169 86.25 174.349C86.4367 174.522 86.53 174.752 86.53 175.039C86.53 175.319 86.4367 175.552 86.25 175.739C86.0633 175.925 85.8333 176.019 85.56 176.019ZM88.1772 176.019C87.9039 176.019 87.6739 175.925 87.4872 175.739C87.3005 175.552 87.2072 175.319 87.2072 175.039C87.2072 174.752 87.3005 174.522 87.4872 174.349C87.6739 174.169 87.9039 174.079 88.1772 174.079C88.4505 174.079 88.6805 174.169 88.8672 174.349C89.0539 174.522 89.1472 174.752 89.1472 175.039C89.1472 175.319 89.0539 175.552 88.8672 175.739C88.6805 175.925 88.4505 176.019 88.1772 176.019Z" fill="#2196F3"/>
</svg>
